# Blender 4.1.1
# www.blender.org
mtllib bishop.mtl
o Bishop
v 0.500000 0.000000 -0.012500
v 0.500000 0.141096 -0.010128
v 0.500000 0.527730 -0.211680
v 0.500000 0.195729 -0.038608
v 0.500000 0.629041 -0.305189
v 0.500000 1.168673 -0.204015
v 0.500000 1.134440 -0.293469
v 0.500000 0.420408 -0.155733
v 0.500000 0.334331 -0.017530
v 0.500000 0.915974 -0.322375
v 0.500000 1.233341 -0.206840
v 0.500000 1.288098 -0.343175
v 0.500000 1.822712 -0.452425
v 0.500000 1.936843 -0.417715
v 0.500000 1.764337 -0.408054
v 0.500000 1.650206 -0.331392
v 0.500000 1.492317 -0.269303
v 0.500000 1.393874 -0.281990
v 0.500000 1.330478 -0.357048
v 0.500000 1.873544 -0.388940
v 0.500000 1.956791 -0.500000
v 0.500000 0.000000 -0.987500
v 0.500000 0.141096 -0.989872
v 0.500000 0.527730 -0.788320
v 0.500000 0.195729 -0.961392
v 0.500000 0.629041 -0.694811
v 0.500000 1.168673 -0.795985
v 0.500000 1.134440 -0.706531
v 0.500000 0.420408 -0.844267
v 0.500000 0.334331 -0.982470
v 0.500000 0.915974 -0.677625
v 0.500000 1.233341 -0.793160
v 0.500000 1.288098 -0.656825
v 0.500000 1.822712 -0.547575
v 0.500000 1.936843 -0.582285
v 0.500000 1.764337 -0.591946
v 0.500000 1.650206 -0.667182
v 0.500000 1.492317 -0.730697
v 0.500000 1.393874 -0.718010
v 0.500000 1.330478 -0.642952
v 0.500000 1.873544 -0.611060
v 0.500000 0.000000 -0.500000
v 0.077813 0.000000 -0.743750
v 0.075759 0.141096 -0.744936
v 0.250308 0.527730 -0.644160
v 0.100423 0.195729 -0.730696
v 0.331289 0.629041 -0.597406
v 0.243670 1.168673 -0.647992
v 0.321139 1.134440 -0.603266
v 0.201856 0.420408 -0.672133
v 0.082168 0.334331 -0.741235
v 0.346173 0.915974 -0.588812
v 0.246116 1.233341 -0.646580
v 0.364186 1.288098 -0.578412
v 0.458799 1.822712 -0.523787
v 0.428739 1.936843 -0.541143
v 0.426671 1.764337 -0.545973
v 0.360877 1.650206 -0.583234
v 0.300211 1.492317 -0.615348
v 0.311198 1.393874 -0.609005
v 0.376200 1.330478 -0.571476
v 0.403819 1.873544 -0.555530
v 0.077813 0.000000 -0.256250
v 0.075758 0.141096 -0.255064
v 0.250308 0.527730 -0.355840
v 0.100423 0.195729 -0.269304
v 0.331288 0.629041 -0.402594
v 0.243670 1.168673 -0.352008
v 0.321139 1.134440 -0.396734
v 0.201856 0.420408 -0.327867
v 0.082168 0.334331 -0.258765
v 0.346173 0.915974 -0.411188
v 0.246116 1.233341 -0.353420
v 0.364186 1.288098 -0.421588
v 0.458799 1.822712 -0.476213
v 0.428739 1.936843 -0.458857
v 0.426671 1.764337 -0.454027
v 0.300211 1.492317 -0.384652
v 0.311198 1.393874 -0.390995
v 0.376200 1.330478 -0.428524
v 0.403819 1.873544 -0.444470
v 0.300211 1.492317 -0.446722
v 0.351835 1.650206 -0.448374
v 0.384760 1.699519 -0.430214
v 0.311659 1.555407 -0.479138
v 0.500000 1.492317 -0.384652
v 0.500000 1.492317 -0.446722
v 0.500000 1.555407 -0.479138
v 0.500000 1.650206 -0.448374
v 0.500000 1.699519 -0.430214
v 0.922187 0.000000 -0.743750
v 0.924241 0.141096 -0.744936
v 0.749692 0.527730 -0.644160
v 0.899577 0.195729 -0.730696
v 0.668711 0.629041 -0.597406
v 0.756330 1.168673 -0.647992
v 0.678861 1.134440 -0.603266
v 0.798144 0.420408 -0.672133
v 0.917832 0.334331 -0.741235
v 0.653827 0.915974 -0.588812
v 0.753884 1.233341 -0.646580
v 0.635814 1.288098 -0.578412
v 0.541201 1.822712 -0.523787
v 0.571261 1.936843 -0.541143
v 0.573329 1.764337 -0.545973
v 0.639123 1.650206 -0.583234
v 0.699789 1.492317 -0.615348
v 0.688802 1.393874 -0.609005
v 0.623800 1.330478 -0.571476
v 0.596181 1.873544 -0.555530
v 0.922187 0.000000 -0.256250
v 0.924242 0.141096 -0.255064
v 0.749692 0.527730 -0.355840
v 0.899577 0.195729 -0.269304
v 0.668712 0.629041 -0.402594
v 0.756330 1.168673 -0.352008
v 0.678861 1.134440 -0.396734
v 0.798144 0.420408 -0.327867
v 0.917832 0.334331 -0.258765
v 0.653827 0.915974 -0.411188
v 0.753884 1.233341 -0.353420
v 0.635814 1.288098 -0.421588
v 0.541201 1.822712 -0.476213
v 0.571261 1.936843 -0.458857
v 0.573329 1.764337 -0.454027
v 0.699789 1.492317 -0.384652
v 0.688802 1.393874 -0.390995
v 0.623800 1.330478 -0.428524
v 0.596181 1.873544 -0.444470
v 0.699789 1.492317 -0.446722
v 0.648165 1.650206 -0.448374
v 0.615240 1.699519 -0.430214
v 0.688341 1.555407 -0.479138
vn -0.4999 -0.0146 -0.8659
vn -0.9999 -0.0146 -0.0000
vn -0.4999 -0.0146 0.8659
vn -0.4557 0.4115 -0.7893
vn -0.9114 0.4115 -0.0000
vn -0.4557 0.4115 0.7893
vn -0.3906 0.6244 -0.6765
vn -0.7811 0.6244 -0.0000
vn -0.3906 0.6244 0.6765
vn -0.4957 -0.1306 -0.8586
vn -0.9914 -0.1306 -0.0000
vn -0.4957 -0.1306 0.8586
vn -0.4993 0.0518 -0.8649
vn -0.9987 0.0518 -0.0000
vn -0.4993 0.0518 0.8649
vn -0.2021 -0.9147 -0.3500
vn -0.4042 -0.9147 -0.0000
vn -0.2021 -0.9147 0.3500
vn -0.4996 0.0378 -0.8654
vn -0.9993 0.0378 -0.0000
vn -0.4996 0.0378 0.8654
vn -0.2919 0.8119 -0.5056
vn -0.5839 0.8119 -0.0000
vn -0.2919 0.8119 0.5056
vn -0.4967 -0.1138 -0.8604
vn -0.9935 -0.1138 -0.0000
vn -0.4967 -0.1138 0.8604
vn -0.2104 0.9072 -0.3644
vn -0.4207 0.9072 -0.0000
vn -0.2104 0.9072 0.3644
vn -0.3394 -0.7343 -0.5879
vn -0.6789 -0.7343 -0.0000
vn -0.3394 -0.7343 0.5879
vn -0.3491 -0.7159 -0.6047
vn -0.6982 -0.7159 -0.0000
vn -0.3491 -0.7159 0.6047
vn -0.4279 0.5172 -0.7412
vn -0.8761 0.4822 -0.0000
vn -0.4279 0.5172 0.7412
vn -0.4589 0.5035 -0.7320
vn -0.8397 0.5430 -0.0000
vn -0.4444 0.5478 0.7088
vn -0.4885 0.3257 -0.8095
vn -0.9117 0.4062 -0.0611
vn -0.4969 -0.1109 -0.8607
vn -0.9938 -0.1109 -0.0000
vn -0.4969 -0.1109 0.8607
vn -0.4810 0.2727 -0.8332
vn -0.9621 0.2727 -0.0000
vn -0.4810 0.2727 0.8332
vn -0.0000 -1.0000 -0.0000
vn -0.4652 0.3663 -0.8058
vn -0.9305 0.3663 -0.0000
vn -0.4652 0.3663 0.8058
vn -0.1348 0.9630 -0.2335
vn -0.2696 0.9630 -0.0000
vn -0.1348 0.9630 0.2335
vn -0.4733 0.3224 0.8198
vn -0.9839 0.1785 -0.0000
vn -0.8209 0.5684 -0.0550
vn -0.0000 0.3196 -0.9475
vn -0.0000 -0.3456 0.9384
vn -0.0000 -0.3087 0.9512
vn -0.0000 0.4570 0.8895
vn -0.0000 -0.3235 0.9462
vn -0.0000 1.0000 -0.0000
vn 0.4999 -0.0146 -0.8659
vn 0.9999 -0.0146 -0.0000
vn 0.4999 -0.0146 0.8659
vn 0.4557 0.4115 -0.7893
vn 0.9114 0.4115 -0.0000
vn 0.4557 0.4115 0.7893
vn 0.3906 0.6244 -0.6765
vn 0.7811 0.6244 -0.0000
vn 0.3906 0.6244 0.6765
vn 0.4957 -0.1306 -0.8586
vn 0.9914 -0.1306 -0.0000
vn 0.4957 -0.1306 0.8586
vn 0.4993 0.0518 -0.8649
vn 0.9987 0.0518 -0.0000
vn 0.4993 0.0518 0.8649
vn 0.2021 -0.9147 -0.3500
vn 0.4042 -0.9147 -0.0000
vn 0.2021 -0.9147 0.3500
vn 0.4996 0.0378 -0.8654
vn 0.9993 0.0378 -0.0000
vn 0.4996 0.0378 0.8654
vn 0.2919 0.8119 -0.5056
vn 0.5839 0.8119 -0.0000
vn 0.2919 0.8119 0.5056
vn 0.4967 -0.1138 -0.8604
vn 0.9935 -0.1138 -0.0000
vn 0.4967 -0.1138 0.8604
vn 0.2104 0.9072 -0.3644
vn 0.4207 0.9072 -0.0000
vn 0.2104 0.9072 0.3644
vn 0.3394 -0.7343 -0.5879
vn 0.6789 -0.7343 -0.0000
vn 0.3394 -0.7343 0.5879
vn 0.3491 -0.7159 -0.6047
vn 0.6982 -0.7159 -0.0000
vn 0.3491 -0.7159 0.6047
vn 0.4466 0.5414 -0.7123
vn 0.8761 0.4822 -0.0000
vn 0.4279 0.5172 0.7412
vn 0.4499 0.4915 -0.7456
vn 0.8619 0.5062 -0.0286
vn 0.4444 0.5478 0.7088
vn 0.4885 0.3257 -0.8095
vn 0.9225 0.3739 -0.0957
vn 0.4969 -0.1109 -0.8607
vn 0.9938 -0.1109 -0.0000
vn 0.4969 -0.1109 0.8607
vn 0.4810 0.2727 -0.8332
vn 0.9621 0.2727 -0.0000
vn 0.4810 0.2727 0.8332
vn 0.4652 0.3663 -0.8058
vn 0.9305 0.3663 -0.0000
vn 0.4652 0.3663 0.8058
vn 0.1348 0.9630 -0.2335
vn 0.2696 0.9630 -0.0000
vn 0.1348 0.9630 0.2335
vn 0.4733 0.3224 0.8198
vn 0.9839 0.1785 -0.0000
vn 0.8209 0.5684 -0.0550
vn -0.4466 0.5414 -0.7123
vn -0.4466 0.5414 0.7123
vn -0.4499 0.4915 -0.7456
vn -0.8619 0.5062 -0.0286
vn -0.4692 0.3456 -0.8127
vn -0.9225 0.3739 -0.0957
vn 0.4279 0.5172 -0.7412
vn 0.4466 0.5414 0.7123
vn 0.4589 0.5035 -0.7320
vn 0.8397 0.5430 -0.0000
vn 0.4692 0.3456 -0.8127
vn 0.9117 0.4062 -0.0611
vt 0.391146 0.330408
vt 0.406836 0.321596
vt 0.391146 0.325838
vt 0.406606 0.366604
vt 0.401487 0.348524
vt 0.401487 0.366641
vt 0.433600 0.322818
vt 0.440843 0.338431
vt 0.438678 0.322742
vt 0.405924 0.319564
vt 0.391146 0.323560
vt 0.399335 0.349055
vt 0.399335 0.366118
vt 0.442553 0.338431
vt 0.440514 0.323654
vt 0.391146 0.309714
vt 0.397386 0.303097
vt 0.391146 0.304784
vt 0.450457 0.367826
vt 0.459407 0.372053
vt 0.457662 0.367826
vt 0.430809 0.353647
vt 0.428936 0.362881
vt 0.432538 0.356642
vt 0.406599 0.315218
vt 0.391146 0.319396
vt 0.394416 0.348654
vt 0.394416 0.366496
vt 0.447717 0.338431
vt 0.445584 0.322979
vt 0.396835 0.293572
vt 0.391146 0.295110
vt 0.450785 0.357290
vt 0.457354 0.357290
vt 0.375832 0.371415
vt 0.382071 0.360401
vt 0.376382 0.361186
vt 0.378321 0.345173
vt 0.375456 0.335881
vt 0.375456 0.346827
vt 0.384936 0.333716
vt 0.384936 0.330408
vt 0.394416 0.335881
vt 0.391146 0.314190
vt 0.400380 0.307217
vt 0.447717 0.376280
vt 0.448744 0.372053
vt 0.388686 0.352301
vt 0.393567 0.363327
vt 0.392293 0.354092
vt 0.446833 0.363601
vt 0.442132 0.354212
vt 0.444671 0.363601
vt 0.399648 0.377587
vt 0.397279 0.366690
vt 0.397279 0.377532
vt 0.464231 0.286683
vt 0.467836 0.296163
vt 0.466541 0.286774
vt 0.402172 0.311208
vt 0.433600 0.322742
vt 0.418313 0.327168
vt 0.431045 0.327168
vt 0.406836 0.338194
vt 0.411947 0.338194
vt 0.391146 0.288472
vt 0.397761 0.286683
vt 0.457905 0.349511
vt 0.450267 0.349511
vt 0.382071 0.352301
vt 0.375456 0.353213
vt 0.442430 0.300425
vt 0.447453 0.308367
vt 0.447453 0.303325
vt 0.452475 0.300425
vt 0.456842 0.302946
vt 0.452475 0.294625
vt 0.405573 0.370454
vt 0.402016 0.370748
vt 0.405573 0.372802
vt 0.404049 0.369574
vt 0.402016 0.366641
vt 0.452841 0.311267
vt 0.456591 0.312744
vt 0.456318 0.310373
vt 0.464480 0.365350
vt 0.463224 0.358367
vt 0.460449 0.358367
vt 0.464480 0.351385
vt 0.440874 0.320708
vt 0.445452 0.317136
vt 0.438470 0.318099
vt 0.456842 0.287095
vt 0.459554 0.288975
vt 0.458366 0.286683
vt 0.419492 0.355985
vt 0.422067 0.353647
vt 0.420307 0.353647
vt 0.454138 0.315150
vt 0.455102 0.313127
vt 0.456842 0.289771
vt 0.461987 0.293350
vt 0.423781 0.358623
vt 0.422893 0.355985
vt 0.452841 0.317431
vt 0.456786 0.314437
vt 0.456842 0.301063
vt 0.456842 0.294804
vt 0.418126 0.360577
vt 0.421983 0.364354
vt 0.423115 0.360637
vt 0.456842 0.304060
vt 0.464231 0.299065
vt 0.417173 0.370233
vt 0.423182 0.366726
vt 0.416946 0.366726
vt 0.438063 0.314508
vt 0.445452 0.313488
vt 0.397279 0.371663
vt 0.394416 0.367085
vt 0.395654 0.371663
vt 0.422659 0.376032
vt 0.421037 0.370490
vt 0.421037 0.375777
vt 0.464394 0.365350
vt 0.466486 0.370372
vt 0.465855 0.365794
vt 0.438063 0.313727
vt 0.422450 0.304713
vt 0.422450 0.322742
vt 0.406836 0.313727
vt 0.406836 0.295698
vt 0.422659 0.373247
vt 0.425137 0.370233
vt 0.422659 0.370517
vt 0.452841 0.321010
vt 0.455310 0.317431
vt 0.452841 0.317966
vt 0.456087 0.308367
vt 0.453511 0.309030
vt 0.410393 0.371468
vt 0.410393 0.374511
vt 0.413028 0.372989
vt 0.413028 0.369946
vt 0.410393 0.368425
vt 0.445452 0.308367
vt 0.425236 0.370233
vt 0.425478 0.366726
vt 0.460449 0.337519
vt 0.466530 0.330131
vt 0.460449 0.330131
vt 0.412491 0.361036
vt 0.414423 0.356774
vt 0.412491 0.355556
vt 0.408815 0.361036
vt 0.408815 0.354070
vt 0.406836 0.361036
vt 0.406836 0.353647
vt 0.414423 0.361036
vt 0.416946 0.361036
vt 0.464231 0.305643
vt 0.466526 0.313032
vt 0.466526 0.305643
vt 0.375456 0.321596
vt 0.399534 0.330408
vt 0.394416 0.348488
vt 0.399534 0.348524
vt 0.438678 0.354121
vt 0.435755 0.338431
vt 0.433600 0.354045
vt 0.376369 0.319564
vt 0.401687 0.330938
vt 0.401687 0.348001
vt 0.440514 0.353209
vt 0.384907 0.303097
vt 0.450504 0.341056
vt 0.459421 0.345283
vt 0.457708 0.341056
vt 0.432538 0.369121
vt 0.425478 0.362881
vt 0.430809 0.372116
vt 0.375693 0.315218
vt 0.406606 0.330537
vt 0.406606 0.348380
vt 0.445584 0.353884
vt 0.385457 0.293572
vt 0.450812 0.330520
vt 0.457381 0.330520
vt 0.388311 0.371415
vt 0.387760 0.361186
vt 0.384936 0.348992
vt 0.394416 0.346827
vt 0.384936 0.352301
vt 0.391551 0.337535
vt 0.391551 0.345173
vt 0.381912 0.307217
vt 0.448759 0.345283
vt 0.460449 0.349511
vt 0.388686 0.374353
vt 0.392293 0.372561
vt 0.442132 0.372990
vt 0.402016 0.366690
vt 0.402016 0.377532
vt 0.466541 0.305553
vt 0.380120 0.311208
vt 0.418313 0.349221
vt 0.433600 0.353647
vt 0.431045 0.349221
vt 0.415757 0.353647
vt 0.457899 0.322742
vt 0.388686 0.353213
vt 0.438063 0.292104
vt 0.438063 0.302946
vt 0.447453 0.291726
vt 0.442430 0.294625
vt 0.447453 0.286683
vt 0.410393 0.370478
vt 0.408359 0.373412
vt 0.410393 0.374586
vt 0.406836 0.368425
vt 0.408359 0.371652
vt 0.460916 0.367355
vt 0.462133 0.370109
vt 0.464394 0.368250
vt 0.466375 0.344933
vt 0.460449 0.348832
vt 0.461540 0.351385
vt 0.461540 0.339741
vt 0.463619 0.344602
vt 0.450031 0.320708
vt 0.452434 0.318099
vt 0.464231 0.304472
vt 0.461519 0.306352
vt 0.464231 0.307148
vt 0.437012 0.354121
vt 0.439586 0.356459
vt 0.438771 0.354121
vt 0.460643 0.369726
vt 0.463096 0.372133
vt 0.459086 0.310727
vt 0.464231 0.312181
vt 0.435297 0.359097
vt 0.440953 0.361051
vt 0.460449 0.371419
vt 0.464394 0.374413
vt 0.464231 0.318440
vt 0.437095 0.364828
vt 0.442132 0.367200
vt 0.456842 0.316442
vt 0.464231 0.321437
vt 0.435896 0.367200
vt 0.441905 0.370707
vt 0.452841 0.314508
vt 0.394416 0.376242
vt 0.419415 0.376032
vt 0.464394 0.375395
vt 0.465855 0.374951
vt 0.438063 0.295698
vt 0.422450 0.286683
vt 0.436078 0.373722
vt 0.433600 0.370707
vt 0.433600 0.374392
vt 0.419415 0.373811
vt 0.416946 0.370233
vt 0.416946 0.374340
vt 0.461147 0.365350
vt 0.463724 0.366012
vt 0.415664 0.371468
vt 0.413028 0.372989
vt 0.415664 0.374511
vt 0.415664 0.368425
vt 0.433843 0.370707
vt 0.433600 0.367200
vt 0.435963 0.361111
vt 0.460449 0.322742
vt 0.414423 0.365298
vt 0.412491 0.366515
vt 0.408815 0.368001
vt 0.464231 0.320421
vt 0.466526 0.320421
vt 0.406760 0.326186
vt 0.406606 0.348575
vt 0.382071 0.370553
vt 0.378321 0.337535
vt 0.460449 0.376280
vt 0.390208 0.363327
vt 0.444270 0.354121
vt 0.399648 0.366641
vt 0.465539 0.296163
vt 0.415757 0.322742
vt 0.456842 0.292104
vt 0.404049 0.367815
vt 0.465868 0.362946
vt 0.465868 0.353789
vt 0.445452 0.320076
vt 0.463824 0.302172
vt 0.395921 0.366641
vt 0.422659 0.370233
vt 0.465087 0.370372
vt 0.425137 0.373917
vt 0.455310 0.321538
vt 0.464231 0.313032
vt 0.375532 0.326186
vt 0.394416 0.330459
vt 0.447717 0.349511
vt 0.444270 0.373081
vt 0.384531 0.286683
vt 0.450261 0.322742
vt 0.406836 0.370772
vt 0.463205 0.337519
vt 0.462707 0.304060
vt 0.436186 0.356459
vt 0.457248 0.319549
vt 0.395921 0.376686
vt 0.419415 0.370233
vt 0.436078 0.370991
vt 0.419415 0.370768
s 0
usemtl White_Oak
f 22/1/1 44/2/1 23/3/1
f 43/4/2 64/5/2 44/6/2
f 63/7/3 2/8/3 64/9/3
f 23/3/4 46/10/4 25/11/4
f 44/6/5 66/12/5 46/13/5
f 64/9/6 4/14/6 66/15/6
f 24/16/7 47/17/7 26/18/7
f 47/19/8 65/20/8 67/21/8
f 65/22/9 5/23/9 67/24/9
f 25/11/10 51/25/10 30/26/10
f 46/13/11 71/27/11 51/28/11
f 66/15/12 9/29/12 71/30/12
f 26/18/13 52/31/13 31/32/13
f 52/33/14 67/21/14 72/34/14
f 67/35/15 10/36/15 72/37/15
f 28/38/16 48/39/16 27/40/16
f 48/39/17 69/41/17 68/42/17
f 69/41/18 6/43/18 68/42/18
f 29/44/4 45/45/4 24/16/4
f 50/46/5 65/20/5 45/47/5
f 70/48/6 3/49/6 65/50/6
f 27/51/19 53/52/19 32/53/19
f 48/54/20 73/55/20 53/56/20
f 68/57/21 11/58/21 73/59/21
f 30/26/22 50/60/22 29/44/22
f 51/61/23 70/62/23 50/63/23
f 70/62/24 9/64/24 8/65/24
f 28/66/25 52/31/25 49/67/25
f 52/33/26 69/68/26 49/69/26
f 72/37/27 7/70/27 69/71/27
f 33/72/28 53/73/28 54/74/28
f 53/73/29 74/75/29 54/74/29
f 73/76/30 12/77/30 74/75/30
f 34/78/31 62/79/31 41/80/31
f 55/81/32 81/82/32 62/79/32
f 81/83/33 13/84/33 20/85/33
f 39/86/34 61/87/34 60/88/34
f 61/87/35 79/89/35 60/88/35
f 80/90/36 18/91/36 79/92/36
f 34/93/37 57/94/37 55/95/37
f 57/96/38 75/97/38 55/98/38
f 77/99/39 13/84/39 75/100/39
f 36/101/40 58/102/40 57/94/40
f 57/96/41 84/103/41 77/104/41
f 77/99/42 84/105/42 15/106/42
f 38/107/43 58/102/43 37/108/43
f 58/109/44 85/110/44 83/111/44
f 39/112/45 59/113/45 38/107/45
f 60/114/46 82/115/46 59/116/46
f 78/117/47 18/91/47 17/118/47
f 33/119/48 61/120/48 40/121/48
f 54/122/49 80/123/49 61/124/49
f 74/125/50 19/126/50 80/127/50
f 22/128/51 42/129/51 43/130/51
f 43/130/51 42/129/51 63/131/51
f 63/131/51 42/129/51 1/132/51
f 35/133/52 62/134/52 56/135/52
f 56/136/53 81/137/53 76/138/53
f 81/83/54 14/139/54 76/140/54
f 21/141/55 35/142/55 56/143/55
f 21/141/56 56/143/56 76/144/56
f 21/141/57 76/144/57 14/145/57
f 16/146/58 78/117/58 17/118/58
f 79/147/46 78/148/46 82/115/46
f 59/116/59 82/115/59 85/110/59
f 58/109/60 83/111/60 84/103/60
f 78/149/61 16/150/61 86/151/61
f 89/152/62 84/153/62 83/154/62
f 88/155/63 83/154/63 85/156/63
f 87/157/64 85/156/64 82/158/64
f 84/153/65 90/159/65 15/160/65
f 78/161/66 87/162/66 82/163/66
f 92/164/67 22/1/67 23/3/67
f 112/165/68 91/166/68 92/167/68
f 112/168/69 1/169/69 111/170/69
f 94/171/70 23/3/70 25/11/70
f 114/172/71 92/167/71 94/173/71
f 4/14/72 112/168/72 114/174/72
f 95/175/73 24/16/73 26/18/73
f 115/176/74 93/177/74 95/178/74
f 115/179/75 3/180/75 113/181/75
f 99/182/76 25/11/76 30/26/76
f 119/183/77 94/173/77 99/184/77
f 9/29/78 114/174/78 119/185/78
f 100/186/79 26/18/79 31/32/79
f 120/187/80 95/178/80 100/188/80
f 10/36/81 115/189/81 120/190/81
f 27/40/82 97/191/82 28/38/82
f 116/192/83 97/191/83 96/193/83
f 116/192/84 7/194/84 117/195/84
f 93/196/70 29/44/70 24/16/70
f 113/197/71 98/198/71 93/177/71
f 3/49/72 118/199/72 113/200/72
f 101/201/85 27/51/85 32/53/85
f 121/202/86 96/54/86 101/203/86
f 11/58/87 116/161/87 121/204/87
f 98/205/88 30/26/88 29/44/88
f 118/206/89 99/207/89 98/208/89
f 118/206/90 9/64/90 119/209/90
f 28/66/91 100/186/91 31/32/91
f 97/210/92 120/187/92 100/188/92
f 7/70/93 120/190/93 117/211/93
f 33/72/94 101/212/94 32/213/94
f 122/214/95 101/212/95 102/215/95
f 12/77/96 121/216/96 122/214/96
f 110/217/97 34/218/97 41/219/97
f 129/220/98 103/221/98 110/217/98
f 20/222/99 123/223/99 129/224/99
f 108/225/100 40/226/100 39/227/100
f 108/225/101 128/228/101 109/229/101
f 18/91/102 128/230/102 127/231/102
f 34/232/103 105/233/103 36/234/103
f 123/235/104 105/236/104 103/237/104
f 13/238/105 125/239/105 123/223/105
f 36/234/106 106/240/106 37/241/106
f 105/236/107 132/242/107 106/243/107
f 125/239/108 15/244/108 132/245/108
f 106/240/109 38/246/109 37/241/109
f 106/243/110 133/247/110 107/248/110
f 107/249/111 39/250/111 38/246/111
f 130/251/112 108/252/112 107/248/112
f 126/253/113 18/91/113 127/231/113
f 109/254/114 33/119/114 40/121/114
f 128/123/115 102/255/115 109/124/115
f 19/126/116 122/256/116 128/257/116
f 22/128/51 91/258/51 42/129/51
f 91/258/51 111/259/51 42/129/51
f 111/259/51 1/132/51 42/129/51
f 35/260/117 110/261/117 41/262/117
f 104/263/118 129/264/118 110/265/118
f 14/266/119 129/224/119 124/267/119
f 21/268/120 104/269/120 35/270/120
f 21/268/121 124/144/121 104/269/121
f 21/268/122 14/271/122 124/144/122
f 16/146/123 17/118/123 126/253/123
f 127/272/112 130/251/112 126/273/112
f 107/248/124 133/247/124 130/251/124
f 106/243/125 132/242/125 131/274/125
f 126/275/61 86/151/61 16/150/61
f 132/276/62 89/152/62 131/277/62
f 131/277/63 88/155/63 133/278/63
f 133/278/64 87/157/64 130/220/64
f 132/276/65 15/160/65 90/159/65
f 87/162/66 126/279/66 130/280/66
f 22/1/1 43/281/1 44/2/1
f 43/4/2 63/282/2 64/5/2
f 63/7/3 1/169/3 2/8/3
f 23/3/4 44/2/4 46/10/4
f 44/6/5 64/5/5 66/12/5
f 64/9/6 2/8/6 4/14/6
f 24/16/7 45/45/7 47/17/7
f 47/19/8 45/47/8 65/20/8
f 65/22/9 3/180/9 5/23/9
f 25/11/10 46/10/10 51/25/10
f 46/13/11 66/12/11 71/27/11
f 66/15/12 4/14/12 9/29/12
f 26/18/13 47/17/13 52/31/13
f 52/33/14 47/19/14 67/21/14
f 67/35/15 5/283/15 10/36/15
f 28/38/16 49/284/16 48/39/16
f 48/39/17 49/284/17 69/41/17
f 69/41/18 7/194/18 6/43/18
f 29/44/4 50/60/4 45/45/4
f 50/46/5 70/285/5 65/20/5
f 70/48/6 8/286/6 3/49/6
f 27/51/19 48/287/19 53/52/19
f 48/54/20 68/288/20 73/55/20
f 68/57/21 6/289/21 11/58/21
f 30/26/22 51/25/22 50/60/22
f 51/61/23 71/290/23 70/62/23
f 70/62/24 71/290/24 9/64/24
f 28/66/25 31/32/25 52/31/25
f 52/33/26 72/34/26 69/68/26
f 72/37/27 10/36/27 7/70/27
f 33/72/28 32/213/28 53/73/28
f 53/73/29 73/76/29 74/75/29
f 73/76/30 11/291/30 12/77/30
f 34/78/31 55/81/31 62/79/31
f 55/81/32 75/292/32 81/82/32
f 81/83/33 75/100/33 13/84/33
f 39/86/34 40/293/34 61/87/34
f 61/87/35 80/294/35 79/89/35
f 80/90/36 19/295/36 18/91/36
f 34/93/126 36/101/126 57/94/126
f 57/96/38 77/104/38 75/97/38
f 77/99/127 15/106/127 13/84/127
f 36/101/128 37/108/128 58/102/128
f 57/96/129 58/109/129 84/103/129
f 38/107/130 59/113/130 58/102/130
f 58/109/131 59/116/131 85/110/131
f 39/112/45 60/296/45 59/113/45
f 60/114/46 79/147/46 82/115/46
f 78/117/47 79/92/47 18/91/47
f 33/119/48 54/297/48 61/120/48
f 54/122/49 74/298/49 80/123/49
f 74/125/50 12/299/50 19/126/50
f 35/133/52 41/300/52 62/134/52
f 56/136/53 62/301/53 81/137/53
f 81/83/54 20/85/54 14/139/54
f 89/152/62 90/159/62 84/153/62
f 88/155/63 89/152/63 83/154/63
f 87/157/64 88/155/64 85/156/64
f 78/161/66 86/302/66 87/162/66
f 92/164/67 91/303/67 22/1/67
f 112/165/68 111/304/68 91/166/68
f 112/168/69 2/8/69 1/169/69
f 94/171/70 92/164/70 23/3/70
f 114/172/71 112/165/71 92/167/71
f 4/14/72 2/8/72 112/168/72
f 95/175/73 93/196/73 24/16/73
f 115/176/74 113/197/74 93/177/74
f 115/179/75 5/23/75 3/180/75
f 99/182/76 94/171/76 25/11/76
f 119/183/77 114/172/77 94/173/77
f 9/29/78 4/14/78 114/174/78
f 100/186/79 95/175/79 26/18/79
f 120/187/80 115/176/80 95/178/80
f 10/36/81 5/283/81 115/189/81
f 27/40/82 96/193/82 97/191/82
f 116/192/83 117/195/83 97/191/83
f 116/192/84 6/43/84 7/194/84
f 93/196/70 98/205/70 29/44/70
f 113/197/71 118/305/71 98/198/71
f 3/49/72 8/286/72 118/199/72
f 101/201/85 96/306/85 27/51/85
f 121/202/86 116/288/86 96/54/86
f 11/58/87 6/289/87 116/161/87
f 98/205/88 99/182/88 30/26/88
f 118/206/89 119/209/89 99/207/89
f 118/206/90 8/65/90 9/64/90
f 28/66/91 97/307/91 100/186/91
f 97/210/92 117/308/92 120/187/92
f 7/70/93 10/36/93 120/190/93
f 33/72/94 102/215/94 101/212/94
f 122/214/95 121/216/95 101/212/95
f 12/77/96 11/291/96 121/216/96
f 110/217/97 103/221/97 34/218/97
f 129/220/98 123/309/98 103/221/98
f 20/222/99 13/238/99 123/223/99
f 108/225/100 109/229/100 40/226/100
f 108/225/101 127/310/101 128/228/101
f 18/91/102 19/295/102 128/230/102
f 34/232/132 103/311/132 105/233/132
f 123/235/104 125/312/104 105/236/104
f 13/238/133 15/244/133 125/239/133
f 36/234/134 105/233/134 106/240/134
f 105/236/135 125/312/135 132/242/135
f 106/240/136 107/249/136 38/246/136
f 106/243/137 131/274/137 133/247/137
f 107/249/111 108/313/111 39/250/111
f 130/251/112 127/272/112 108/252/112
f 126/253/113 17/118/113 18/91/113
f 109/254/114 102/314/114 33/119/114
f 128/123/115 122/315/115 102/255/115
f 19/126/116 12/299/116 122/256/116
f 35/260/117 104/316/117 110/261/117
f 104/263/118 124/317/118 129/264/118
f 14/266/119 20/222/119 129/224/119
f 132/276/62 90/159/62 89/152/62
f 131/277/63 89/152/63 88/155/63
f 133/278/64 88/155/64 87/157/64
f 87/162/66 86/302/66 126/279/66
