# Blender 4.1.1
# www.blender.org
mtllib board.mtl
o Board
v -4.000000 0.000000 4.000000
v 4.000000 0.000000 4.000000
v -4.000000 0.000000 -4.000000
v 4.000000 0.000000 -4.000000
v -3.000000 0.000000 4.000000
v -2.000000 0.000000 4.000000
v -1.000000 0.000000 4.000000
v 0.000000 0.000000 4.000000
v 1.000000 0.000000 4.000000
v 2.000000 0.000000 4.000000
v 3.000000 0.000000 4.000000
v 3.000000 0.000000 -4.000000
v 2.000000 0.000000 -4.000000
v 1.000000 0.000000 -4.000000
v 0.000000 0.000000 -4.000000
v -1.000000 0.000000 -4.000000
v -2.000000 0.000000 -4.000000
v -3.000000 0.000000 -4.000000
v -4.000000 0.000000 -3.000000
v -4.000000 0.000000 -2.000000
v -4.000000 0.000000 -1.000000
v -4.000000 0.000000 0.000000
v -4.000000 0.000000 1.000000
v -4.000000 0.000000 2.000000
v -4.000000 0.000000 3.000000
v 4.000000 0.000000 3.000000
v 4.000000 0.000000 2.000000
v 4.000000 0.000000 1.000000
v 4.000000 0.000000 0.000000
v 4.000000 0.000000 -1.000000
v 4.000000 0.000000 -2.000000
v 4.000000 0.000000 -3.000000
v -3.000000 0.000000 3.000000
v -3.000000 0.000000 2.000000
v -3.000000 0.000000 1.000000
v -3.000000 0.000000 0.000000
v -3.000000 0.000000 -1.000000
v -3.000000 0.000000 -2.000000
v -3.000000 0.000000 -3.000000
v -2.000000 0.000000 3.000000
v -2.000000 0.000000 2.000000
v -2.000000 0.000000 1.000000
v -2.000000 0.000000 0.000000
v -2.000000 0.000000 -1.000000
v -2.000000 0.000000 -2.000000
v -2.000000 0.000000 -3.000000
v -1.000000 0.000000 3.000000
v -1.000000 0.000000 2.000000
v -1.000000 0.000000 1.000000
v -1.000000 0.000000 0.000000
v -1.000000 0.000000 -1.000000
v -1.000000 0.000000 -2.000000
v -1.000000 0.000000 -3.000000
v 0.000000 0.000000 3.000000
v 0.000000 0.000000 2.000000
v 0.000000 0.000000 1.000000
v 0.000000 0.000000 0.000000
v 0.000000 0.000000 -1.000000
v 0.000000 0.000000 -2.000000
v 0.000000 0.000000 -3.000000
v 1.000000 0.000000 3.000000
v 1.000000 0.000000 2.000000
v 1.000000 0.000000 1.000000
v 1.000000 0.000000 0.000000
v 1.000000 0.000000 -1.000000
v 1.000000 0.000000 -2.000000
v 1.000000 0.000000 -3.000000
v 2.000000 0.000000 3.000000
v 2.000000 0.000000 2.000000
v 2.000000 0.000000 1.000000
v 2.000000 0.000000 0.000000
v 2.000000 0.000000 -1.000000
v 2.000000 0.000000 -2.000000
v 2.000000 0.000000 -3.000000
v 3.000000 0.000000 3.000000
v 3.000000 0.000000 2.000000
v 3.000000 0.000000 1.000000
v 3.000000 0.000000 0.000000
v 3.000000 0.000000 -1.000000
v 3.000000 0.000000 -2.000000
v 3.000000 0.000000 -3.000000
vn -0.0000 1.0000 -0.0000
vt 0.940517 0.696598
vt 0.895817 0.741298
vt 0.895817 0.696598
vt 0.153089 0.561736
vt 0.119035 0.595791
vt 0.119035 0.561736
vt 0.672320 0.696598
vt 0.627620 0.741298
vt 0.627620 0.696598
vt 0.221199 0.561736
vt 0.187144 0.595791
vt 0.187144 0.561736
vt 0.761719 0.696598
vt 0.717019 0.741298
vt 0.717019 0.696598
vt 0.289308 0.561736
vt 0.255254 0.595791
vt 0.255254 0.561736
vt 0.851118 0.696598
vt 0.806418 0.741298
vt 0.806418 0.696598
vt 0.357418 0.561736
vt 0.323363 0.595791
vt 0.323363 0.561736
vt 0.895817 0.383702
vt 0.851118 0.428402
vt 0.851118 0.383702
vt 0.357418 0.357408
vt 0.323363 0.391462
vt 0.323363 0.357408
vt 0.895817 0.473101
vt 0.851118 0.517801
vt 0.851118 0.473101
vt 0.357418 0.425517
vt 0.323363 0.459572
vt 0.323363 0.425517
vt 0.895817 0.562500
vt 0.851118 0.607200
vt 0.851118 0.562500
vt 0.357418 0.493627
vt 0.323363 0.527681
vt 0.323363 0.493627
vt 0.895817 0.651899
vt 0.851118 0.651899
vt 0.323363 0.323353
vt 0.289308 0.357408
vt 0.289308 0.323353
vt 0.806418 0.473101
vt 0.806418 0.428402
vt 0.289308 0.425517
vt 0.289308 0.391462
vt 0.806418 0.562500
vt 0.806418 0.517801
vt 0.289308 0.493627
vt 0.289308 0.459572
vt 0.806418 0.651899
vt 0.806418 0.607200
vt 0.289308 0.527681
vt 0.806418 0.383702
vt 0.761719 0.428402
vt 0.761719 0.383702
vt 0.255254 0.391462
vt 0.255254 0.357408
vt 0.761719 0.517801
vt 0.761719 0.473101
vt 0.255254 0.459572
vt 0.255254 0.425517
vt 0.761719 0.607200
vt 0.761719 0.562500
vt 0.255254 0.527681
vt 0.255254 0.493627
vt 0.761719 0.651899
vt 0.255254 0.323353
vt 0.221199 0.357408
vt 0.221199 0.323353
vt 0.717019 0.473101
vt 0.717019 0.428402
vt 0.221199 0.425517
vt 0.221199 0.391462
vt 0.717019 0.562500
vt 0.717019 0.517801
vt 0.221199 0.493627
vt 0.221199 0.459572
vt 0.717019 0.651899
vt 0.717019 0.607200
vt 0.221199 0.527681
vt 0.717019 0.383702
vt 0.672320 0.428402
vt 0.672320 0.383702
vt 0.187144 0.391462
vt 0.187144 0.357408
vt 0.672320 0.517801
vt 0.672320 0.473101
vt 0.187144 0.459572
vt 0.187144 0.425517
vt 0.672320 0.607200
vt 0.672320 0.562500
vt 0.187144 0.527681
vt 0.187144 0.493627
vt 0.672320 0.651899
vt 0.187144 0.323353
vt 0.153089 0.357408
vt 0.153089 0.323353
vt 0.627620 0.473101
vt 0.627620 0.428402
vt 0.153089 0.425517
vt 0.153089 0.391462
vt 0.627620 0.562500
vt 0.627620 0.517801
vt 0.153089 0.493627
vt 0.153089 0.459572
vt 0.627620 0.651899
vt 0.627620 0.607200
vt 0.153089 0.527681
vt 0.627620 0.383702
vt 0.582921 0.428402
vt 0.582921 0.383702
vt 0.119035 0.391462
vt 0.119035 0.357408
vt 0.582921 0.517801
vt 0.582921 0.473101
vt 0.119035 0.459572
vt 0.119035 0.425517
vt 0.582921 0.607200
vt 0.582921 0.562500
vt 0.119035 0.527681
vt 0.119035 0.493627
vt 0.582921 0.696598
vt 0.582921 0.651899
vt 0.391473 0.323353
vt 0.357418 0.323353
vt 0.940517 0.428402
vt 0.895817 0.428402
vt 0.391473 0.391462
vt 0.357418 0.391462
vt 0.940517 0.517801
vt 0.895817 0.517801
vt 0.391473 0.459572
vt 0.357418 0.459572
vt 0.940517 0.607200
vt 0.895817 0.607200
vt 0.391473 0.527681
vt 0.357418 0.527681
vt 0.940517 0.741298
vt 0.153089 0.595791
vt 0.672320 0.741298
vt 0.221199 0.595791
vt 0.761719 0.741298
vt 0.289308 0.595791
vt 0.851118 0.741298
vt 0.357418 0.595791
vt 0.391473 0.357408
vt 0.940517 0.473101
vt 0.391473 0.425517
vt 0.940517 0.562500
vt 0.391473 0.493627
vt 0.940517 0.651899
vt 0.391473 0.561736
s 0
usemtl Material.001
f 32/1/1 12/2/1 81/3/1
f 39/4/1 3/5/1 19/6/1
f 46/7/1 18/8/1 39/9/1
f 53/10/1 17/11/1 46/12/1
f 60/13/1 16/14/1 53/15/1
f 67/16/1 15/17/1 60/18/1
f 74/19/1 14/20/1 67/21/1
f 81/22/1 13/23/1 74/24/1
f 11/25/1 68/26/1 10/27/1
f 75/28/1 69/29/1 68/30/1
f 76/31/1 70/32/1 69/33/1
f 77/34/1 71/35/1 70/36/1
f 78/37/1 72/38/1 71/39/1
f 79/40/1 73/41/1 72/42/1
f 80/43/1 74/19/1 73/44/1
f 10/45/1 61/46/1 9/47/1
f 68/26/1 62/48/1 61/49/1
f 69/29/1 63/50/1 62/51/1
f 70/32/1 64/52/1 63/53/1
f 71/35/1 65/54/1 64/55/1
f 72/38/1 66/56/1 65/57/1
f 73/41/1 67/16/1 66/58/1
f 9/59/1 54/60/1 8/61/1
f 61/46/1 55/62/1 54/63/1
f 62/48/1 56/64/1 55/65/1
f 63/50/1 57/66/1 56/67/1
f 64/52/1 58/68/1 57/69/1
f 65/54/1 59/70/1 58/71/1
f 66/56/1 60/13/1 59/72/1
f 8/73/1 47/74/1 7/75/1
f 54/60/1 48/76/1 47/77/1
f 55/62/1 49/78/1 48/79/1
f 56/64/1 50/80/1 49/81/1
f 57/66/1 51/82/1 50/83/1
f 58/68/1 52/84/1 51/85/1
f 59/70/1 53/10/1 52/86/1
f 7/87/1 40/88/1 6/89/1
f 47/74/1 41/90/1 40/91/1
f 48/76/1 42/92/1 41/93/1
f 49/78/1 43/94/1 42/95/1
f 50/80/1 44/96/1 43/97/1
f 51/82/1 45/98/1 44/99/1
f 52/84/1 46/7/1 45/100/1
f 6/101/1 33/102/1 5/103/1
f 40/88/1 34/104/1 33/105/1
f 41/90/1 35/106/1 34/107/1
f 42/92/1 36/108/1 35/109/1
f 43/94/1 37/110/1 36/111/1
f 44/96/1 38/112/1 37/113/1
f 45/98/1 39/4/1 38/114/1
f 5/115/1 25/116/1 1/117/1
f 33/102/1 24/118/1 25/119/1
f 34/104/1 23/120/1 24/121/1
f 35/106/1 22/122/1 23/123/1
f 36/108/1 21/124/1 22/125/1
f 37/110/1 20/126/1 21/127/1
f 38/112/1 19/128/1 20/129/1
f 2/130/1 75/28/1 11/131/1
f 26/132/1 76/31/1 75/133/1
f 27/134/1 77/34/1 76/135/1
f 28/136/1 78/37/1 77/137/1
f 29/138/1 79/40/1 78/139/1
f 30/140/1 80/43/1 79/141/1
f 31/142/1 81/22/1 80/143/1
f 32/1/1 4/144/1 12/2/1
f 39/4/1 18/145/1 3/5/1
f 46/7/1 17/146/1 18/8/1
f 53/10/1 16/147/1 17/11/1
f 60/13/1 15/148/1 16/14/1
f 67/16/1 14/149/1 15/17/1
f 74/19/1 13/150/1 14/20/1
f 81/22/1 12/151/1 13/23/1
f 11/25/1 75/133/1 68/26/1
f 75/28/1 76/135/1 69/29/1
f 76/31/1 77/137/1 70/32/1
f 77/34/1 78/139/1 71/35/1
f 78/37/1 79/141/1 72/38/1
f 79/40/1 80/143/1 73/41/1
f 80/43/1 81/3/1 74/19/1
f 10/45/1 68/30/1 61/46/1
f 68/26/1 69/33/1 62/48/1
f 69/29/1 70/36/1 63/50/1
f 70/32/1 71/39/1 64/52/1
f 71/35/1 72/42/1 65/54/1
f 72/38/1 73/44/1 66/56/1
f 73/41/1 74/24/1 67/16/1
f 9/59/1 61/49/1 54/60/1
f 61/46/1 62/51/1 55/62/1
f 62/48/1 63/53/1 56/64/1
f 63/50/1 64/55/1 57/66/1
f 64/52/1 65/57/1 58/68/1
f 65/54/1 66/58/1 59/70/1
f 66/56/1 67/21/1 60/13/1
f 8/73/1 54/63/1 47/74/1
f 54/60/1 55/65/1 48/76/1
f 55/62/1 56/67/1 49/78/1
f 56/64/1 57/69/1 50/80/1
f 57/66/1 58/71/1 51/82/1
f 58/68/1 59/72/1 52/84/1
f 59/70/1 60/18/1 53/10/1
f 7/87/1 47/77/1 40/88/1
f 47/74/1 48/79/1 41/90/1
f 48/76/1 49/81/1 42/92/1
f 49/78/1 50/83/1 43/94/1
f 50/80/1 51/85/1 44/96/1
f 51/82/1 52/86/1 45/98/1
f 52/84/1 53/15/1 46/7/1
f 6/101/1 40/91/1 33/102/1
f 40/88/1 41/93/1 34/104/1
f 41/90/1 42/95/1 35/106/1
f 42/92/1 43/97/1 36/108/1
f 43/94/1 44/99/1 37/110/1
f 44/96/1 45/100/1 38/112/1
f 45/98/1 46/12/1 39/4/1
f 5/115/1 33/105/1 25/116/1
f 33/102/1 34/107/1 24/118/1
f 34/104/1 35/109/1 23/120/1
f 35/106/1 36/111/1 22/122/1
f 36/108/1 37/113/1 21/124/1
f 37/110/1 38/114/1 20/126/1
f 38/112/1 39/9/1 19/128/1
f 2/130/1 26/152/1 75/28/1
f 26/132/1 27/153/1 76/31/1
f 27/134/1 28/154/1 77/34/1
f 28/136/1 29/155/1 78/37/1
f 29/138/1 30/156/1 79/40/1
f 30/140/1 31/157/1 80/43/1
f 31/142/1 32/158/1 81/22/1
o Base
v -4.400000 -0.292441 4.400000
v -3.992643 0.126772 3.992643
v -4.400000 -0.292441 -4.400000
v -3.992643 0.126772 -3.992643
v 4.400000 -0.292441 4.400000
v 3.992643 0.126772 3.992643
v 4.400000 -0.292441 -4.400000
v 3.992643 0.126772 -3.992643
v -4.400000 0.129678 4.400000
v -4.400000 0.129678 -4.400000
v 4.400000 0.129678 -4.400000
v 4.400000 0.129678 4.400000
v -3.992643 -0.036502 3.992643
v -3.992643 -0.036502 -3.992643
v 3.992643 -0.036502 -3.992643
v 3.992643 -0.036502 3.992643
vn -1.0000 -0.0000 -0.0000
vn -0.0000 -0.0000 -1.0000
vn 1.0000 -0.0000 -0.0000
vn -0.0000 -0.0000 1.0000
vn -0.0000 -1.0000 -0.0000
vn 0.0071 1.0000 -0.0000
vn -0.0000 1.0000 0.0071
vn -0.0071 1.0000 -0.0000
vn -0.0000 1.0000 -0.0071
vt 0.625000 0.000000
vt 0.375000 0.250000
vt 0.375000 0.000000
vt 0.625000 0.250000
vt 0.375000 0.500000
vt 0.625000 0.500000
vt 0.375000 0.750000
vt 0.625000 0.750000
vt 0.375000 1.000000
vt 0.125000 0.750000
vt 0.125000 0.500000
vt 0.632535 0.742465
vt 0.867465 0.742465
vt 0.867465 0.507535
vt 0.875000 0.750000
vt 0.632535 0.507535
vt 0.875000 0.500000
vt 0.625000 1.000000
s 0
usemtl Material
f 90/159/2 84/160/2 82/161/2
f 91/162/3 88/163/3 84/160/3
f 92/164/4 86/165/4 88/163/4
f 93/166/5 82/167/5 86/165/5
f 88/163/6 82/168/6 84/169/6
f 87/170/3 94/171/3 83/171/3
f 85/172/7 90/173/7 83/171/7
f 89/174/8 91/175/8 85/172/8
f 87/170/9 92/164/9 89/174/9
f 83/171/10 93/166/10 87/170/10
f 85/172/5 96/174/5 89/174/5
f 89/174/2 97/170/2 87/170/2
f 83/171/4 95/172/4 85/172/4
f 90/159/2 91/162/2 84/160/2
f 91/162/3 92/164/3 88/163/3
f 92/164/4 93/166/4 86/165/4
f 93/166/5 90/176/5 82/167/5
f 88/163/6 86/165/6 82/168/6
f 87/170/3 97/170/3 94/171/3
f 85/172/7 91/175/7 90/173/7
f 89/174/8 92/164/8 91/175/8
f 87/170/9 93/166/9 92/164/9
f 83/171/10 90/173/10 93/166/10
f 85/172/5 95/172/5 96/174/5
f 89/174/2 96/174/2 97/170/2
f 83/171/4 94/171/4 95/172/4
