# Blender 4.1.1
# www.blender.org
mtllib knight.mtl
o Knight
v 0.500000 0.000000 -0.500000
v 0.500000 0.000000 -0.012500
v 0.500000 0.141096 -0.010128
v 0.500000 0.564355 -0.138430
v 0.500000 0.195729 -0.038608
v 0.500000 0.420408 -0.155733
v 0.500000 0.334331 -0.017530
v 0.500000 0.564355 -0.500000
v 0.500000 0.498844 -0.179398
v 0.500000 0.000000 -0.987500
v 0.500000 0.141096 -0.989872
v 0.500000 0.564355 -0.861570
v 0.500000 0.195729 -0.961392
v 0.500000 0.420408 -0.844267
v 0.500000 0.334331 -0.982470
v 0.500000 0.498844 -0.820602
v 0.500000 0.960483 -0.500000
v 0.500000 0.669639 -0.125606
v 0.500000 1.232638 -0.572067
v 0.500000 1.300421 -0.012757
v 0.500000 1.256751 -0.550278
v 0.500000 1.079275 -0.152143
v 0.500000 1.158369 -0.215016
v 0.500000 1.458410 -0.166068
v 0.500000 0.626551 -0.194794
v 0.500000 1.193618 -0.017818
v 0.500000 1.566130 -0.203770
v 0.500000 1.688213 -0.395871
v 0.500000 1.764489 -0.403052
v 0.500000 1.749254 -0.604129
v 0.500000 1.731301 -0.762118
v 0.500000 1.594855 -0.875224
v 0.500000 1.408141 -0.952424
v 0.500000 0.792342 -0.970377
v 0.500000 0.626551 -0.814183
v 0.077813 0.000000 -0.256250
v 0.075759 0.141096 -0.255064
v 0.186872 0.564355 -0.319215
v 0.100423 0.195729 -0.269304
v 0.201856 0.420408 -0.327867
v 0.082168 0.334331 -0.258765
v 0.222350 0.498844 -0.339699
v 0.077813 0.000000 -0.743750
v 0.075759 0.141096 -0.744936
v 0.186872 0.564355 -0.680785
v 0.100423 0.195729 -0.730696
v 0.201856 0.420408 -0.672133
v 0.082168 0.334331 -0.741235
v 0.222350 0.498844 -0.660301
v 0.321198 1.237377 -0.645769
v 0.243639 0.789991 -0.307715
v 0.321198 1.309512 -0.544741
v 0.293886 1.243760 -0.242116
v 0.369684 1.225868 -0.085029
v 0.348128 1.124252 -0.165001
v 0.371904 1.429885 -0.245622
v 0.337411 1.310353 -0.097123
v 0.243639 0.701208 -0.327707
v 0.336278 1.555677 -0.284140
v 0.321198 1.654168 -0.429521
v 0.321198 1.822001 -0.404513
v 0.321198 1.667358 -0.620015
v 0.321198 1.641153 -0.725770
v 0.321198 1.497432 -0.866201
v 0.342328 1.302581 -0.849134
v 0.237127 0.974238 -0.871003
v 0.265832 0.704871 -0.798936
v 0.189138 0.705992 -0.565840
v 0.178135 0.896333 -0.588159
v 0.292194 1.279375 -0.729372
v 0.265564 1.377053 -0.715447
v 0.258873 1.481002 -0.622608
v 0.266530 1.543295 -0.511510
v 0.301230 1.372824 -0.383706
v 0.922187 0.000000 -0.256250
v 0.924241 0.141096 -0.255064
v 0.813128 0.564355 -0.319215
v 0.899577 0.195729 -0.269304
v 0.798144 0.420408 -0.327867
v 0.917832 0.334331 -0.258765
v 0.777650 0.498844 -0.339699
v 0.922187 0.000000 -0.743750
v 0.924241 0.141096 -0.744936
v 0.813128 0.564355 -0.680785
v 0.899577 0.195729 -0.730696
v 0.798144 0.420408 -0.672133
v 0.917832 0.334331 -0.741235
v 0.777650 0.498844 -0.660301
v 0.678802 1.237377 -0.645769
v 0.756361 0.789991 -0.307715
v 0.678802 1.309512 -0.544741
v 0.706114 1.243760 -0.242116
v 0.630316 1.225868 -0.085029
v 0.651872 1.124252 -0.165001
v 0.628096 1.429885 -0.245622
v 0.662589 1.310353 -0.097123
v 0.756361 0.701208 -0.327707
v 0.663722 1.555677 -0.284140
v 0.678802 1.654168 -0.429521
v 0.678802 1.822001 -0.404513
v 0.678802 1.667358 -0.620015
v 0.678802 1.641153 -0.725770
v 0.678802 1.497432 -0.866201
v 0.657672 1.302581 -0.849134
v 0.762873 0.974238 -0.871003
v 0.734168 0.704871 -0.798936
v 0.810862 0.705992 -0.565840
v 0.821865 0.896333 -0.588159
v 0.707806 1.279375 -0.729372
v 0.734436 1.377053 -0.715447
v 0.741127 1.481002 -0.622608
v 0.733470 1.543295 -0.511510
v 0.698770 1.372824 -0.383706
vn -0.4999 -0.0146 0.8659
vn -0.9999 -0.0146 -0.0000
vn -0.4999 -0.0146 -0.8659
vn -0.4557 0.4115 0.7893
vn -0.9114 0.4115 -0.0000
vn -0.4557 0.4115 -0.7893
vn -0.4957 -0.1306 0.8586
vn -0.9914 -0.1306 -0.0000
vn -0.4957 -0.1306 -0.8586
vn -0.4838 0.2528 0.8379
vn -0.9675 0.2528 -0.0000
vn -0.4838 0.2528 -0.8379
vn -0.2919 0.8119 0.5056
vn -0.5839 0.8119 -0.0000
vn -0.2919 0.8119 -0.5056
vn -0.0000 -1.0000 -0.0000
vn -0.4397 -0.4762 0.7615
vn -0.8793 -0.4762 -0.0000
vn -0.4397 -0.4762 -0.7615
vn -0.8402 0.4120 0.3525
vn -0.9738 -0.0500 0.2219
vn -0.9406 -0.2763 0.1973
vn -0.9933 -0.0549 -0.1016
vn -0.8981 -0.1381 0.4176
vn -0.9456 -0.2484 0.2099
vn -0.9172 0.3863 0.0979
vn -0.9451 0.3172 -0.0786
vn -1.0000 -0.0000 -0.0000
vn -0.9621 0.2365 -0.1355
vn -0.9604 0.1487 -0.2357
vn -0.9461 -0.0911 -0.3108
vn -0.8932 -0.1851 -0.4098
vn -0.9863 -0.1055 0.1271
vn -0.9386 -0.1747 0.2974
vn -0.3023 0.8045 0.5113
vn -0.2821 -0.9319 -0.2279
vn -0.3977 0.2202 0.8907
vn -0.9999 0.0160 -0.0000
vn -0.2010 0.0918 0.9753
vn -0.4633 -0.6748 0.5744
vn 0.3059 0.9493 -0.0719
vn -0.1172 -0.6180 -0.7774
vn -0.4066 0.9078 -0.1032
vn -0.3132 0.6614 0.6815
vn -0.4315 0.5757 -0.6945
vn -0.4951 -0.1909 0.8476
vn -0.2469 0.3703 -0.8955
vn -0.4661 -0.0419 0.8837
vn -0.2561 0.6006 0.7574
vn -0.5591 0.0242 -0.8288
vn -0.5507 0.2757 0.7878
vn -0.2526 -0.7874 0.5622
vn -0.4997 -0.2732 -0.8220
vn -0.9167 0.2605 -0.3029
vn -0.4173 0.5507 -0.7229
vn 0.4999 -0.0146 0.8659
vn 0.9999 -0.0146 -0.0000
vn 0.4999 -0.0146 -0.8659
vn 0.4557 0.4115 0.7893
vn 0.9114 0.4115 -0.0000
vn 0.4557 0.4115 -0.7893
vn 0.4957 -0.1306 0.8586
vn 0.9914 -0.1306 -0.0000
vn 0.4957 -0.1306 -0.8586
vn 0.4838 0.2528 0.8379
vn 0.9675 0.2528 -0.0000
vn 0.4838 0.2528 -0.8379
vn 0.2919 0.8119 0.5056
vn 0.5839 0.8119 -0.0000
vn 0.2919 0.8119 -0.5056
vn 0.4397 -0.4762 0.7615
vn 0.8793 -0.4762 -0.0000
vn 0.4397 -0.4762 -0.7615
vn 0.7799 0.4074 0.4752
vn 0.9738 -0.0500 0.2219
vn 0.9406 -0.2763 0.1973
vn 0.9933 -0.0549 -0.1016
vn 0.8769 -0.2790 0.3914
vn 0.9419 -0.3355 0.0151
vn 0.8791 0.3741 0.2954
vn 0.9451 0.3172 -0.0786
vn 1.0000 -0.0000 -0.0000
vn 0.9621 0.2365 -0.1355
vn 0.9604 0.1487 -0.2357
vn 0.9461 -0.0911 -0.3108
vn 0.8932 -0.1851 -0.4098
vn 0.9863 -0.1055 0.1271
vn 0.9386 -0.1747 0.2974
vn 0.2555 0.7879 0.5603
vn 0.3391 -0.9027 -0.2649
vn 0.3933 0.6174 0.6813
vn 0.8977 0.3856 0.2132
vn 0.0554 -0.1471 0.9876
vn 0.4633 -0.6748 0.5744
vn 0.3051 0.7737 -0.5552
vn 0.1172 -0.6180 -0.7774
vn 0.4740 0.8547 -0.2118
vn 0.4665 0.7388 0.4863
vn 0.4315 0.5757 -0.6945
vn 0.6121 -0.6713 0.4180
vn 0.2469 0.3703 -0.8955
vn 0.4624 -0.0499 0.8853
vn 0.2561 0.6006 0.7574
vn 0.5591 0.0242 -0.8288
vn 0.4434 0.1452 0.8845
vn 0.1723 -0.6604 0.7309
vn 0.2667 -0.6609 -0.7015
vn 0.9167 0.2605 -0.3029
vn 0.4173 0.5507 -0.7229
vn -0.7799 0.4074 0.4752
vn -0.9759 -0.0311 0.2162
vn -0.9413 -0.2829 0.1844
vn -0.8769 -0.2790 0.3914
vn -0.9419 -0.3355 0.0151
vn -0.8791 0.3741 0.2954
vn -0.9419 0.3166 -0.1126
vn -0.9050 0.4245 0.0294
vn -0.8973 0.3085 -0.3158
vn -0.9480 0.2224 -0.2276
vn -0.9549 -0.1674 -0.2453
vn -0.8898 -0.1347 -0.4359
vn -0.9032 0.1242 0.4109
vn -0.9277 0.2573 0.2706
vn -0.2555 0.7879 0.5603
vn -0.3391 -0.9027 -0.2649
vn -0.3933 0.6174 0.6813
vn -0.8977 0.3856 0.2132
vn -0.0554 -0.1471 0.9876
vn -0.2354 -0.5697 0.7874
vn -0.3051 0.7737 -0.5552
vn -0.1345 -0.5796 -0.8037
vn -0.4740 0.8547 -0.2118
vn -0.4665 0.7388 0.4863
vn -0.3848 0.6451 -0.6602
vn -0.6121 -0.6713 0.4180
vn -0.4820 -0.1282 -0.8668
vn -0.4624 -0.0499 0.8853
vn -0.2886 0.6086 0.7392
vn -0.2594 0.1467 -0.9546
vn -0.4434 0.1452 0.8845
vn -0.1723 -0.6604 0.7309
vn -0.2667 -0.6609 -0.7015
vn -0.2347 -0.5450 -0.8050
vn 0.8402 0.4120 0.3525
vn 0.9759 -0.0311 0.2162
vn 0.9413 -0.2829 0.1844
vn 0.8981 -0.1381 0.4176
vn 0.9456 -0.2484 0.2099
vn 0.9172 0.3863 0.0979
vn 0.9419 0.3166 -0.1126
vn 0.9050 0.4245 0.0294
vn 0.8973 0.3085 -0.3158
vn 0.9480 0.2224 -0.2276
vn 0.9549 -0.1674 -0.2453
vn 0.8898 -0.1347 -0.4359
vn 0.9032 0.1242 0.4109
vn 0.9277 0.2573 0.2706
vn 0.3023 0.8045 0.5113
vn 0.2821 -0.9319 -0.2279
vn 0.3977 0.2202 0.8907
vn 0.9999 0.0160 -0.0000
vn 0.2010 0.0918 0.9753
vn 0.2354 -0.5697 0.7874
vn -0.3059 0.9493 -0.0719
vn 0.1345 -0.5796 -0.8037
vn 0.4066 0.9078 -0.1032
vn 0.3132 0.6614 0.6815
vn 0.3848 0.6451 -0.6602
vn 0.4951 -0.1909 0.8476
vn 0.4820 -0.1282 -0.8668
vn 0.4661 -0.0419 0.8837
vn 0.2886 0.6086 0.7392
vn 0.2594 0.1467 -0.9546
vn 0.5507 0.2757 0.7878
vn 0.2526 -0.7874 0.5622
vn 0.4997 -0.2732 -0.8220
vn 0.2347 -0.5450 -0.8050
vt 0.661985 0.488380
vt 0.693635 0.604164
vt 0.666317 0.603649
vt 0.727007 0.603998
vt 0.693635 0.488701
vt 0.727007 0.488380
vt 0.727422 0.668428
vt 0.693635 0.603759
vt 0.648151 0.492021
vt 0.652231 0.600589
vt 0.739953 0.601019
vt 0.739953 0.492122
vt 0.786234 0.254771
vt 0.827144 0.156720
vt 0.835667 0.161896
vt 0.623367 0.488380
vt 0.627633 0.601908
vt 0.772719 0.603212
vt 0.772719 0.489341
vt 0.774659 0.469027
vt 0.826033 0.537700
vt 0.794413 0.538035
vt 0.576137 0.585285
vt 0.591260 0.506995
vt 0.594304 0.588003
vt 0.475008 0.469715
vt 0.396255 0.488380
vt 0.399341 0.469803
vt 0.206468 0.584595
vt 0.230425 0.516204
vt 0.240817 0.520060
vt 0.310380 0.491709
vt 0.304194 0.518370
vt 0.155305 0.585791
vt 0.206996 0.488673
vt 0.341285 0.545907
vt 0.441001 0.488380
vt 0.441001 0.603663
vt 0.540717 0.546136
vt 0.540717 0.661420
vt 0.788102 0.810033
vt 0.799378 0.749427
vt 0.817314 0.748397
vt 0.393930 0.454349
vt 0.575369 0.388226
vt 0.533270 0.422249
vt 0.524806 0.406585
vt 0.472869 0.294935
vt 0.457156 0.375761
vt 0.392025 0.400926
vt 0.452125 0.420777
vt 0.396773 0.421920
vt 0.488398 0.261933
vt 0.449000 0.277900
vt 0.377171 0.293564
vt 0.410660 0.262990
vt 0.341285 0.297764
vt 0.359858 0.321798
vt 0.466347 0.237378
vt 0.379153 0.249461
vt 0.343607 0.277809
vt 0.466644 0.193238
vt 0.491613 0.199407
vt 0.421688 0.196411
vt 0.415729 0.156720
vt 0.492134 0.285007
vt 0.524806 0.357197
vt 0.524806 0.233363
vt 0.508337 0.420902
vt 0.521174 0.279435
vt 0.440224 0.222667
vt 0.387645 0.219732
vt 0.729824 0.696091
vt 0.766742 0.735930
vt 0.724957 0.746499
vt 0.235356 0.736149
vt 0.161413 0.688981
vt 0.233613 0.693358
vt 0.644230 0.811127
vt 0.638551 0.730523
vt 0.671446 0.792644
vt 0.479267 0.454249
vt 0.726282 0.680677
vt 0.773476 0.696531
vt 0.266348 0.756444
vt 0.235378 0.724498
vt 0.275924 0.733251
vt 0.701830 0.388112
vt 0.660136 0.337853
vt 0.703102 0.343505
vt 0.328573 0.763584
vt 0.316907 0.734022
vt 0.339607 0.731019
vt 0.700908 0.423760
vt 0.660568 0.399523
vt 0.728351 0.772196
vt 0.768318 0.808874
vt 0.727611 0.823850
vt 0.701853 0.461668
vt 0.660136 0.424807
vt 0.318960 0.560118
vt 0.328946 0.604606
vt 0.310380 0.607804
vt 0.581461 0.192650
vt 0.552534 0.181879
vt 0.592014 0.156720
vt 0.764794 0.826752
vt 0.733453 0.843280
vt 0.713444 0.167990
vt 0.774659 0.289348
vt 0.711576 0.337853
vt 0.569044 0.329021
vt 0.555323 0.226429
vt 0.763073 0.765390
vt 0.352375 0.763338
vt 0.370070 0.801507
vt 0.341285 0.799806
vt 0.533138 0.365049
vt 0.524806 0.299795
vt 0.580934 0.377893
vt 0.830022 0.553638
vt 0.804514 0.666666
vt 0.804514 0.551317
vt 0.540717 0.786984
vt 0.573510 0.671244
vt 0.573510 0.787039
vt 0.772719 0.668428
vt 0.804514 0.552395
vt 0.804514 0.667878
vt 0.612197 0.671244
vt 0.601258 0.664254
vt 0.587243 0.674738
vt 0.587243 0.783800
vt 0.827144 0.357017
vt 0.835667 0.350549
vt 0.772969 0.342066
vt 0.745393 0.451459
vt 0.745393 0.337853
vt 0.618795 0.671887
vt 0.618795 0.785933
vt 0.826033 0.364591
vt 0.794413 0.357017
vt 0.556270 0.635506
vt 0.540717 0.629523
vt 0.285322 0.487977
vt 0.206638 0.469539
vt 0.282419 0.468891
vt 0.655210 0.430240
vt 0.578104 0.405971
vt 0.653266 0.413899
vt 0.310380 0.688981
vt 0.230425 0.656967
vt 0.304194 0.659133
vt 0.193541 0.585502
vt 0.341285 0.661190
vt 0.441001 0.718947
vt 0.773476 0.678519
vt 0.788102 0.668428
vt 0.201282 0.455765
vt 0.286746 0.455034
vt 0.660136 0.397167
vt 0.208311 0.293414
vt 0.221953 0.378590
vt 0.188169 0.284981
vt 0.227978 0.422442
vt 0.289141 0.400126
vt 0.284723 0.420851
vt 0.190905 0.263282
vt 0.231940 0.276404
vt 0.303478 0.292224
vt 0.269622 0.262142
vt 0.341285 0.292983
vt 0.337871 0.274641
vt 0.212435 0.239149
vt 0.302635 0.245686
vt 0.212905 0.193184
vt 0.187999 0.199504
vt 0.257978 0.195872
vt 0.263306 0.156720
vt 0.155305 0.358605
vt 0.155305 0.233272
vt 0.173507 0.420046
vt 0.160186 0.277772
vt 0.238541 0.224099
vt 0.292806 0.217909
vt 0.693635 0.738108
vt 0.693635 0.698909
vt 0.163422 0.786365
vt 0.155305 0.738727
vt 0.644230 0.671244
vt 0.618795 0.729876
vt 0.545777 0.430843
vt 0.558421 0.472312
vt 0.524806 0.469872
vt 0.276850 0.698456
vt 0.744553 0.338254
vt 0.744986 0.399924
vt 0.328573 0.697788
vt 0.744553 0.425208
vt 0.695717 0.811036
vt 0.705874 0.767093
vt 0.328946 0.488673
vt 0.337583 0.561582
vt 0.629810 0.176501
vt 0.295739 0.731953
vt 0.291411 0.688981
vt 0.660136 0.289348
vt 0.623466 0.221687
vt 0.565383 0.430240
vt 0.579759 0.466539
vt 0.558421 0.472885
vt 0.370070 0.720648
vt 0.360061 0.763299
vt 0.634342 0.358007
vt 0.689324 0.489453
vt 0.694048 0.667878
vt 0.774659 0.255327
vt 0.807142 0.471707
vt 0.573302 0.509845
vt 0.477508 0.488285
vt 0.773476 0.804080
vt 0.763301 0.668428
vt 0.235356 0.756562
vt 0.295739 0.778276
vt 0.660975 0.469298
vt 0.757773 0.156720
vt 0.830022 0.668428
vt 0.540717 0.671750
vt 0.772719 0.553504
vt 0.772969 0.450708
vt 0.203948 0.488673
vt 0.574500 0.421727
vt 0.574331 0.668481
vt 0.206996 0.685945
vt 0.322560 0.317699
vt 0.235356 0.777838
vt 0.671446 0.678120
vt 0.558421 0.430240
vt 0.247595 0.688981
vt 0.295739 0.688981
vt 0.745393 0.469699
vt 0.310380 0.491871
vt 0.677897 0.156720
vt 0.638416 0.291889
vt 0.579734 0.430240
vt 0.341285 0.718947
s 0
usemtl White_Oak
f 37/1/1 2/2/1 3/3/1
f 44/4/2 36/5/2 37/6/2
f 11/7/3 43/8/3 44/4/3
f 39/9/4 3/3/4 5/10/4
f 46/11/5 37/6/5 39/12/5
f 13/13/6 44/14/6 46/15/6
f 41/16/7 5/10/7 7/17/7
f 48/18/8 39/12/8 41/19/8
f 15/20/9 46/21/9 48/22/9
f 9/23/10 40/24/10 6/25/10
f 49/26/11 40/27/11 42/28/11
f 16/29/12 47/30/12 49/31/12
f 6/25/13 41/16/13 7/17/13
f 47/30/14 41/32/14 40/33/14
f 47/30/15 15/34/15 48/35/15
f 2/36/16 36/37/16 1/38/16
f 36/37/16 43/39/16 1/38/16
f 43/39/16 10/40/16 1/38/16
f 38/41/17 9/42/17 4/43/17
f 38/44/18 49/26/18 42/28/18
f 12/45/19 49/46/19 45/47/19
f 50/48/20 69/49/20 51/50/20
f 51/50/21 68/51/21 58/52/21
f 71/53/22 50/48/22 52/54/22
f 53/55/23 74/56/23 52/54/23
f 54/57/24 53/55/24 55/58/24
f 52/54/25 72/59/25 71/53/25
f 56/60/26 53/55/26 57/61/26
f 72/59/27 62/62/27 63/63/27
f 62/62/28 60/64/28 61/65/28
f 70/66/29 66/67/29 69/49/29
f 72/59/30 64/68/30 71/53/30
f 69/49/31 67/69/31 68/51/31
f 71/53/32 65/70/32 70/66/32
f 74/56/33 73/71/33 72/59/33
f 59/72/34 73/71/34 56/60/34
f 28/73/35 59/74/35 27/75/35
f 21/76/36 53/77/36 52/78/36
f 38/79/37 25/80/37 58/81/37
f 38/44/38 68/51/38 45/82/38
f 29/83/39 60/84/39 28/73/39
f 54/85/40 22/86/40 26/87/40
f 30/88/41 61/89/41 29/90/41
f 55/91/42 23/92/42 22/93/42
f 31/94/43 62/95/43 30/88/43
f 24/96/44 57/97/44 20/98/44
f 32/99/45 63/100/45 31/94/45
f 25/101/46 51/102/46 58/103/46
f 33/104/47 64/105/47 32/106/47
f 20/98/48 54/107/48 26/108/48
f 19/109/49 51/110/49 18/111/49
f 34/112/50 65/113/50 33/104/50
f 27/75/51 56/114/51 24/96/51
f 19/115/52 52/116/52 50/117/52
f 34/112/53 67/118/53 66/119/53
f 45/82/54 68/51/54 67/69/54
f 45/47/55 35/120/55 12/45/55
f 2/121/56 76/122/56 3/123/56
f 75/124/57 83/125/57 76/126/57
f 82/127/58 11/128/58 83/129/58
f 5/10/59 76/130/59 78/131/59
f 76/126/60 85/132/60 78/133/60
f 83/134/61 13/13/61 85/135/61
f 5/136/62 80/137/62 7/138/62
f 78/133/63 87/139/63 80/140/63
f 85/141/64 15/20/64 87/142/64
f 9/23/65 79/143/65 81/144/65
f 79/145/66 88/146/66 81/147/66
f 86/148/67 16/149/67 88/150/67
f 7/17/68 79/143/68 6/25/68
f 80/151/69 86/152/69 79/153/69
f 86/152/70 15/34/70 14/154/70
f 2/36/16 1/38/16 75/155/16
f 75/155/16 1/38/16 82/156/16
f 82/156/16 1/38/16 10/40/16
f 4/43/71 81/157/71 77/158/71
f 81/147/72 84/159/72 77/160/72
f 84/161/73 16/149/73 12/45/73
f 89/162/74 108/163/74 109/164/74
f 107/165/75 90/166/75 97/167/75
f 89/162/76 110/168/76 91/169/76
f 92/170/77 91/169/77 113/171/77
f 93/172/78 92/170/78 96/173/78
f 91/169/79 111/174/79 113/171/79
f 95/175/80 92/170/80 113/171/80
f 101/176/81 111/174/81 102/177/81
f 99/178/82 101/176/82 100/179/82
f 105/180/83 109/164/83 108/163/83
f 103/181/84 111/174/84 110/168/84
f 106/182/85 108/163/85 107/165/85
f 104/183/86 110/168/86 109/164/86
f 112/184/87 113/171/87 111/174/87
f 112/184/88 98/185/88 95/175/88
f 28/73/89 98/186/89 99/187/89
f 21/76/90 92/188/90 23/189/90
f 77/190/91 25/80/91 4/191/91
f 77/160/92 107/165/92 97/167/92
f 29/192/93 99/193/93 100/194/93
f 22/86/94 93/195/94 26/87/94
f 30/88/95 100/196/95 101/197/95
f 23/92/96 94/198/96 22/93/96
f 31/94/97 101/197/97 102/199/97
f 24/96/98 96/200/98 95/201/98
f 102/199/99 32/99/99 31/94/99
f 25/101/100 90/202/100 18/203/100
f 103/204/101 33/104/101 32/106/101
f 20/205/102 93/195/102 96/206/102
f 90/207/103 19/109/103 18/111/103
f 104/208/104 34/112/104 33/104/104
f 27/209/105 95/210/105 98/211/105
f 19/115/106 91/212/106 21/213/106
f 34/112/107 106/214/107 35/120/107
f 84/159/108 106/182/108 107/165/108
f 35/120/109 84/161/109 12/45/109
f 37/1/1 36/215/1 2/2/1
f 44/4/2 43/8/2 36/5/2
f 11/7/3 10/216/3 43/8/3
f 39/9/4 37/1/4 3/3/4
f 46/11/5 44/4/5 37/6/5
f 13/13/6 11/217/6 44/14/6
f 41/16/7 39/9/7 5/10/7
f 48/18/8 46/11/8 39/12/8
f 15/20/9 13/218/9 46/21/9
f 9/23/10 42/219/10 40/24/10
f 49/26/11 47/220/11 40/27/11
f 16/29/12 14/154/12 47/30/12
f 6/25/13 40/24/13 41/16/13
f 47/30/14 48/35/14 41/32/14
f 47/30/15 14/154/15 15/34/15
f 38/41/17 42/221/17 9/42/17
f 38/44/18 45/82/18 49/26/18
f 12/45/19 16/149/19 49/46/19
f 50/48/110 70/66/110 69/49/110
f 51/50/111 69/49/111 68/51/111
f 71/53/112 70/66/112 50/48/112
f 54/57/113 57/61/113 53/55/113
f 52/54/114 74/56/114 72/59/114
f 56/60/115 74/56/115 53/55/115
f 72/59/116 73/71/116 62/62/116
f 62/62/117 73/71/117 60/64/117
f 70/66/118 65/70/118 66/67/118
f 72/59/119 63/63/119 64/68/119
f 69/49/120 66/67/120 67/69/120
f 71/53/121 64/68/121 65/70/121
f 74/56/122 56/60/122 73/71/122
f 59/72/123 60/64/123 73/71/123
f 28/73/124 60/84/124 59/74/124
f 21/76/125 23/189/125 53/77/125
f 38/79/126 4/191/126 25/80/126
f 38/44/127 58/52/127 68/51/127
f 29/83/128 61/222/128 60/84/128
f 54/85/129 55/223/129 22/86/129
f 30/88/130 62/95/130 61/89/130
f 55/91/131 53/224/131 23/92/131
f 31/94/132 63/100/132 62/95/132
f 24/96/133 56/114/133 57/97/133
f 32/99/134 64/225/134 63/100/134
f 25/101/135 18/203/135 51/102/135
f 33/104/136 65/113/136 64/105/136
f 20/98/137 57/97/137 54/107/137
f 19/109/138 50/226/138 51/110/138
f 34/112/139 66/119/139 65/113/139
f 27/75/140 59/74/140 56/114/140
f 19/115/141 21/213/141 52/116/141
f 34/112/142 35/120/142 67/118/142
f 45/47/143 67/118/143 35/120/143
f 2/121/56 75/227/56 76/122/56
f 75/124/57 82/228/57 83/125/57
f 82/127/58 10/229/58 11/128/58
f 5/10/59 3/3/59 76/130/59
f 76/126/60 83/125/60 85/132/60
f 83/134/61 11/217/61 13/13/61
f 5/136/62 78/230/62 80/137/62
f 78/133/63 85/132/63 87/139/63
f 85/141/64 13/218/64 15/20/64
f 9/23/65 6/25/65 79/143/65
f 79/145/66 86/231/66 88/146/66
f 86/148/67 14/232/67 16/149/67
f 7/17/68 80/233/68 79/143/68
f 80/151/69 87/234/69 86/152/69
f 86/152/70 87/234/70 15/34/70
f 4/43/71 9/42/71 81/157/71
f 81/147/72 88/146/72 84/159/72
f 84/161/73 88/150/73 16/149/73
f 89/162/144 90/166/144 108/163/144
f 107/165/145 108/163/145 90/166/145
f 89/162/146 109/164/146 110/168/146
f 93/172/147 94/235/147 92/170/147
f 91/169/148 110/168/148 111/174/148
f 95/175/149 96/173/149 92/170/149
f 101/176/150 112/184/150 111/174/150
f 99/178/151 112/184/151 101/176/151
f 105/180/152 104/183/152 109/164/152
f 103/181/153 102/177/153 111/174/153
f 106/182/154 105/180/154 108/163/154
f 104/183/155 103/181/155 110/168/155
f 112/184/156 95/175/156 113/171/156
f 112/184/157 99/178/157 98/185/157
f 28/73/158 27/75/158 98/186/158
f 21/76/159 91/236/159 92/188/159
f 77/190/160 97/237/160 25/80/160
f 77/160/161 84/159/161 107/165/161
f 29/192/162 28/238/162 99/193/162
f 22/86/163 94/239/163 93/195/163
f 30/88/164 29/90/164 100/196/164
f 23/92/165 92/240/165 94/198/165
f 31/94/166 30/88/166 101/197/166
f 24/96/167 20/98/167 96/200/167
f 102/199/168 103/241/168 32/99/168
f 25/101/169 97/242/169 90/202/169
f 103/204/170 104/208/170 33/104/170
f 20/205/171 26/87/171 93/195/171
f 90/207/172 89/243/172 19/109/172
f 104/208/173 105/244/173 34/112/173
f 27/209/174 24/245/174 95/210/174
f 19/115/175 89/246/175 91/212/175
f 34/112/176 105/244/176 106/214/176
f 35/120/177 106/214/177 84/161/177
