# Blender 4.1.1
# www.blender.org
mtllib knight.mtl
o Knight
v 0.500000 0.000000 0.500000
v 0.500000 0.000000 0.987500
v 0.500000 0.141096 0.989872
v 0.500000 0.564355 0.861570
v 0.500000 0.195729 0.961392
v 0.500000 0.420408 0.844267
v 0.500000 0.334331 0.982470
v 0.500000 0.564355 0.500000
v 0.500000 0.498844 0.820602
v 0.500000 0.000000 0.012500
v 0.500000 0.141096 0.010128
v 0.500000 0.564355 0.138430
v 0.500000 0.195729 0.038608
v 0.500000 0.420408 0.155733
v 0.500000 0.334331 0.017530
v 0.500000 0.498844 0.179398
v 0.500000 0.960483 0.500000
v 0.500000 0.669639 0.874394
v 0.500000 1.232638 0.427933
v 0.500000 1.300421 0.987243
v 0.500000 1.256751 0.449722
v 0.500000 1.079275 0.847857
v 0.500000 1.158369 0.784984
v 0.500000 1.458410 0.833932
v 0.500000 0.626551 0.805206
v 0.500000 1.193618 0.982182
v 0.500000 1.566130 0.796230
v 0.500000 1.688213 0.604129
v 0.500000 1.764489 0.596948
v 0.500000 1.749254 0.395871
v 0.500000 1.731301 0.237882
v 0.500000 1.594855 0.124776
v 0.500000 1.408141 0.047576
v 0.500000 0.792342 0.029623
v 0.500000 0.626551 0.185817
v 0.077813 0.000000 0.743750
v 0.075759 0.141096 0.744936
v 0.186872 0.564355 0.680785
v 0.100423 0.195729 0.730696
v 0.201856 0.420408 0.672133
v 0.082168 0.334331 0.741235
v 0.222350 0.498844 0.660301
v 0.077813 0.000000 0.256250
v 0.075759 0.141096 0.255064
v 0.186872 0.564355 0.319215
v 0.100423 0.195729 0.269304
v 0.201856 0.420408 0.327867
v 0.082168 0.334331 0.258765
v 0.222350 0.498844 0.339699
v 0.321198 1.237377 0.354231
v 0.243639 0.789991 0.692285
v 0.321198 1.309512 0.455259
v 0.293886 1.243760 0.757884
v 0.369684 1.225868 0.914971
v 0.348128 1.124252 0.834999
v 0.371904 1.429885 0.754378
v 0.337411 1.310353 0.902877
v 0.243639 0.701208 0.672293
v 0.336278 1.555677 0.715860
v 0.321198 1.654168 0.570479
v 0.321198 1.822001 0.595487
v 0.321198 1.667358 0.379985
v 0.321198 1.641153 0.274230
v 0.321198 1.497432 0.133799
v 0.342328 1.302581 0.150866
v 0.237127 0.974238 0.128997
v 0.265832 0.704871 0.201064
v 0.189138 0.705992 0.434160
v 0.178135 0.896333 0.411841
v 0.292194 1.279375 0.270628
v 0.265564 1.377053 0.284553
v 0.258873 1.481002 0.377392
v 0.266530 1.543295 0.488490
v 0.301230 1.372824 0.616294
v 0.922187 0.000000 0.743750
v 0.924241 0.141096 0.744936
v 0.813128 0.564355 0.680785
v 0.899577 0.195729 0.730696
v 0.798144 0.420408 0.672133
v 0.917832 0.334331 0.741235
v 0.777650 0.498844 0.660301
v 0.922187 0.000000 0.256250
v 0.924241 0.141096 0.255064
v 0.813128 0.564355 0.319215
v 0.899577 0.195729 0.269304
v 0.798144 0.420408 0.327867
v 0.917832 0.334331 0.258765
v 0.777650 0.498844 0.339699
v 0.678802 1.237377 0.354231
v 0.756361 0.789991 0.692285
v 0.678802 1.309512 0.455259
v 0.706114 1.243760 0.757884
v 0.630316 1.225868 0.914971
v 0.651872 1.124252 0.834999
v 0.628096 1.429885 0.754378
v 0.662589 1.310353 0.902877
v 0.756361 0.701208 0.672293
v 0.663722 1.555677 0.715860
v 0.678802 1.654168 0.570479
v 0.678802 1.822001 0.595487
v 0.678802 1.667358 0.379985
v 0.678802 1.641153 0.274230
v 0.678802 1.497432 0.133799
v 0.657672 1.302581 0.150866
v 0.762873 0.974238 0.128997
v 0.734168 0.704871 0.201064
v 0.810862 0.705992 0.434160
v 0.821865 0.896333 0.411841
v 0.707806 1.279375 0.270628
v 0.734436 1.377053 0.284553
v 0.741127 1.481002 0.377392
v 0.733470 1.543295 0.488490
v 0.698770 1.372824 0.616294
vn -0.4999 -0.0146 0.8659
vn -0.9999 -0.0146 -0.0000
vn -0.4999 -0.0146 -0.8659
vn -0.4557 0.4115 0.7893
vn -0.9114 0.4115 -0.0000
vn -0.4557 0.4115 -0.7893
vn -0.4957 -0.1306 0.8586
vn -0.9914 -0.1306 -0.0000
vn -0.4957 -0.1306 -0.8586
vn -0.4838 0.2528 0.8379
vn -0.9675 0.2528 -0.0000
vn -0.4838 0.2528 -0.8379
vn -0.2919 0.8119 0.5056
vn -0.5839 0.8119 -0.0000
vn -0.2919 0.8119 -0.5056
vn -0.0000 -1.0000 -0.0000
vn -0.4397 -0.4762 0.7615
vn -0.8793 -0.4762 -0.0000
vn -0.4397 -0.4762 -0.7615
vn -0.8402 0.4120 0.3525
vn -0.9738 -0.0500 0.2219
vn -0.9406 -0.2763 0.1972
vn -0.9933 -0.0549 -0.1016
vn -0.8981 -0.1381 0.4176
vn -0.9456 -0.2484 0.2099
vn -0.9172 0.3863 0.0979
vn -0.9451 0.3172 -0.0786
vn -1.0000 -0.0000 -0.0000
vn -0.9621 0.2365 -0.1355
vn -0.9604 0.1487 -0.2357
vn -0.9461 -0.0911 -0.3108
vn -0.8932 -0.1851 -0.4098
vn -0.9863 -0.1055 0.1271
vn -0.9386 -0.1747 0.2974
vn -0.3023 0.8045 0.5113
vn -0.2821 -0.9319 -0.2279
vn -0.3977 0.2202 0.8907
vn -0.9999 0.0160 -0.0000
vn -0.2010 0.0918 0.9753
vn -0.4633 -0.6748 0.5744
vn 0.3059 0.9493 -0.0719
vn -0.1172 -0.6180 -0.7774
vn -0.4066 0.9078 -0.1032
vn -0.3132 0.6614 0.6815
vn -0.4315 0.5757 -0.6945
vn -0.4951 -0.1909 0.8476
vn -0.2469 0.3703 -0.8955
vn -0.4661 -0.0419 0.8837
vn -0.2561 0.6006 0.7574
vn -0.5591 0.0242 -0.8288
vn -0.5507 0.2757 0.7878
vn -0.2526 -0.7874 0.5622
vn -0.4997 -0.2732 -0.8220
vn -0.9167 0.2605 -0.3029
vn -0.4173 0.5507 -0.7229
vn 0.4999 -0.0146 0.8659
vn 0.9999 -0.0146 -0.0000
vn 0.4999 -0.0146 -0.8659
vn 0.4557 0.4115 0.7893
vn 0.9114 0.4115 -0.0000
vn 0.4557 0.4115 -0.7893
vn 0.4957 -0.1306 0.8586
vn 0.9914 -0.1306 -0.0000
vn 0.4957 -0.1306 -0.8586
vn 0.4838 0.2528 0.8379
vn 0.9675 0.2528 -0.0000
vn 0.4838 0.2528 -0.8379
vn 0.2919 0.8119 0.5056
vn 0.5839 0.8119 -0.0000
vn 0.2919 0.8119 -0.5056
vn 0.4397 -0.4762 0.7615
vn 0.8793 -0.4762 -0.0000
vn 0.4397 -0.4762 -0.7615
vn 0.7799 0.4074 0.4752
vn 0.9738 -0.0500 0.2219
vn 0.9406 -0.2763 0.1973
vn 0.9933 -0.0549 -0.1016
vn 0.8769 -0.2790 0.3914
vn 0.9419 -0.3355 0.0151
vn 0.8791 0.3741 0.2954
vn 0.9451 0.3172 -0.0786
vn 1.0000 -0.0000 -0.0000
vn 0.9621 0.2365 -0.1355
vn 0.9604 0.1487 -0.2357
vn 0.9461 -0.0911 -0.3108
vn 0.8932 -0.1851 -0.4098
vn 0.9863 -0.1055 0.1271
vn 0.9386 -0.1747 0.2974
vn 0.2555 0.7879 0.5603
vn 0.3391 -0.9027 -0.2649
vn 0.3933 0.6174 0.6813
vn 0.8977 0.3856 0.2132
vn 0.0554 -0.1471 0.9876
vn 0.4633 -0.6748 0.5744
vn 0.3051 0.7737 -0.5552
vn 0.1172 -0.6180 -0.7774
vn 0.4740 0.8547 -0.2118
vn 0.4665 0.7388 0.4863
vn 0.4315 0.5757 -0.6945
vn 0.6121 -0.6713 0.4180
vn 0.2469 0.3703 -0.8955
vn 0.4624 -0.0499 0.8853
vn 0.2561 0.6006 0.7574
vn 0.5591 0.0242 -0.8288
vn 0.4434 0.1452 0.8845
vn 0.1723 -0.6604 0.7309
vn 0.2667 -0.6609 -0.7015
vn 0.9167 0.2605 -0.3029
vn 0.4173 0.5507 -0.7229
vn -0.7799 0.4074 0.4752
vn -0.9759 -0.0311 0.2162
vn -0.9413 -0.2829 0.1844
vn -0.8769 -0.2790 0.3914
vn -0.9419 -0.3355 0.0151
vn -0.8791 0.3741 0.2954
vn -0.9419 0.3166 -0.1126
vn -0.9050 0.4245 0.0294
vn -0.8973 0.3085 -0.3158
vn -0.9480 0.2224 -0.2276
vn -0.9549 -0.1674 -0.2453
vn -0.8898 -0.1347 -0.4359
vn -0.9032 0.1242 0.4109
vn -0.9277 0.2573 0.2706
vn -0.2555 0.7879 0.5603
vn -0.3391 -0.9027 -0.2649
vn -0.3933 0.6174 0.6813
vn -0.8977 0.3856 0.2132
vn -0.0554 -0.1471 0.9876
vn -0.2354 -0.5697 0.7874
vn -0.3051 0.7737 -0.5552
vn -0.1345 -0.5796 -0.8037
vn -0.4740 0.8547 -0.2118
vn -0.4665 0.7388 0.4863
vn -0.3848 0.6451 -0.6602
vn -0.6121 -0.6713 0.4180
vn -0.4820 -0.1282 -0.8668
vn -0.4624 -0.0499 0.8853
vn -0.2886 0.6086 0.7392
vn -0.2594 0.1467 -0.9546
vn -0.4434 0.1452 0.8845
vn -0.1723 -0.6604 0.7309
vn -0.2667 -0.6609 -0.7015
vn -0.2347 -0.5450 -0.8050
vn 0.8402 0.4120 0.3525
vn 0.9759 -0.0311 0.2162
vn 0.9413 -0.2829 0.1844
vn 0.8981 -0.1381 0.4176
vn 0.9456 -0.2484 0.2099
vn 0.9172 0.3863 0.0979
vn 0.9419 0.3166 -0.1126
vn 0.9050 0.4245 0.0294
vn 0.8973 0.3085 -0.3158
vn 0.9480 0.2224 -0.2276
vn 0.9549 -0.1674 -0.2453
vn 0.8898 -0.1347 -0.4359
vn 0.9032 0.1242 0.4109
vn 0.9277 0.2573 0.2706
vn 0.3023 0.8045 0.5113
vn 0.2821 -0.9319 -0.2279
vn 0.3977 0.2202 0.8907
vn 0.9999 0.0160 -0.0000
vn 0.2010 0.0918 0.9753
vn 0.2354 -0.5697 0.7874
vn -0.3059 0.9493 -0.0719
vn 0.1345 -0.5796 -0.8037
vn 0.4066 0.9078 -0.1032
vn 0.3132 0.6614 0.6815
vn 0.3848 0.6451 -0.6602
vn 0.4951 -0.1909 0.8476
vn 0.4820 -0.1282 -0.8668
vn 0.4661 -0.0419 0.8837
vn 0.2886 0.6086 0.7392
vn 0.2594 0.1467 -0.9546
vn 0.5507 0.2757 0.7878
vn 0.2526 -0.7874 0.5622
vn 0.4997 -0.2732 -0.8220
vn 0.2347 -0.5450 -0.8050
vt 0.166667 0.141096
vt 0.000000 0.000000
vt 0.000000 0.141096
vt 0.333333 0.141096
vt 0.166667 0.000000
vt 0.500000 0.141096
vt 0.333333 0.000000
vt 0.166667 0.195729
vt 0.000000 0.195729
vt 0.333333 0.195729
vt 0.500000 0.195729
vt 0.166667 0.334331
vt 0.000000 0.334331
vt 0.333333 0.334331
vt 0.500000 0.334331
vt 0.166667 0.498844
vt 0.000000 0.420408
vt 0.000000 0.498844
vt 0.333333 0.498844
vt 0.166667 0.420408
vt 0.500000 0.498844
vt 0.333333 0.420408
vt 0.500000 0.000000
vt 0.166667 0.564355
vt 0.000000 0.564355
vt 0.333333 0.564355
vt 0.500000 0.564355
vt 0.000000 0.000000
vt 0.500000 0.420408
s 0
usemtl Material.023
f 37/1/1 2/2/1 3/3/1
f 44/4/2 36/5/2 37/1/2
f 11/6/3 43/7/3 44/4/3
f 39/8/4 3/3/4 5/9/4
f 46/10/5 37/1/5 39/8/5
f 13/11/6 44/4/6 46/10/6
f 41/12/7 5/9/7 7/13/7
f 48/14/8 39/8/8 41/12/8
f 15/15/9 46/10/9 48/14/9
f 42/16/10 6/17/10 9/18/10
f 49/19/11 40/20/11 42/16/11
f 16/21/12 47/22/12 49/19/12
f 6/17/13 41/12/13 7/13/13
f 40/20/14 48/14/14 41/12/14
f 47/22/15 15/15/15 48/14/15
f 2/2/16 36/5/16 1/2/16
f 36/5/16 43/7/16 1/5/16
f 43/7/16 10/23/16 1/7/16
f 38/24/17 9/18/17 4/25/17
f 45/26/18 42/16/18 38/24/18
f 12/27/19 49/19/19 45/26/19
f 45/28/54 68/28/54 67/28/54
f 45/28/55 35/28/55 12/28/55
f 2/2/56 76/1/56 3/3/56
f 75/5/57 83/4/57 76/1/57
f 82/7/58 11/6/58 83/4/58
f 5/9/59 76/1/59 78/8/59
f 76/1/60 85/10/60 78/8/60
f 83/4/61 13/11/61 85/10/61
f 5/9/62 80/12/62 7/13/62
f 78/8/63 87/14/63 80/12/63
f 85/10/64 15/15/64 87/14/64
f 9/18/65 79/20/65 81/16/65
f 81/16/66 86/22/66 88/19/66
f 88/19/67 14/29/67 16/21/67
f 7/13/68 79/20/68 6/17/68
f 80/12/69 86/22/69 79/20/69
f 87/14/70 14/29/70 86/22/70
f 2/2/16 1/5/16 75/5/16
f 75/5/16 1/7/16 82/7/16
f 82/7/16 1/23/16 10/23/16
f 9/18/71 77/24/71 4/25/71
f 81/16/72 84/26/72 77/24/72
f 88/19/73 12/27/73 84/26/73
f 84/28/108 106/28/108 107/28/108
f 35/28/109 84/28/109 12/28/109
f 37/1/1 36/5/1 2/2/1
f 44/4/2 43/7/2 36/5/2
f 11/6/3 10/23/3 43/7/3
f 39/8/4 37/1/4 3/3/4
f 46/10/5 44/4/5 37/1/5
f 13/11/6 11/6/6 44/4/6
f 41/12/7 39/8/7 5/9/7
f 48/14/8 46/10/8 39/8/8
f 15/15/9 13/11/9 46/10/9
f 42/16/10 40/20/10 6/17/10
f 49/19/11 47/22/11 40/20/11
f 16/21/12 14/29/12 47/22/12
f 6/17/13 40/20/13 41/12/13
f 40/20/14 47/22/14 48/14/14
f 47/22/15 14/29/15 15/15/15
f 38/24/17 42/16/17 9/18/17
f 45/26/18 49/19/18 42/16/18
f 12/27/19 16/21/19 49/19/19
f 45/28/143 67/28/143 35/28/143
f 2/2/56 75/5/56 76/1/56
f 75/5/57 82/7/57 83/4/57
f 82/7/58 10/23/58 11/6/58
f 5/9/59 3/3/59 76/1/59
f 76/1/60 83/4/60 85/10/60
f 83/4/61 11/6/61 13/11/61
f 5/9/62 78/8/62 80/12/62
f 78/8/63 85/10/63 87/14/63
f 85/10/64 13/11/64 15/15/64
f 9/18/65 6/17/65 79/20/65
f 81/16/66 79/20/66 86/22/66
f 88/19/67 86/22/67 14/29/67
f 7/13/68 80/12/68 79/20/68
f 80/12/69 87/14/69 86/22/69
f 87/14/70 15/15/70 14/29/70
f 9/18/71 81/16/71 77/24/71
f 81/16/72 88/19/72 84/26/72
f 88/19/73 16/21/73 12/27/73
f 35/28/177 106/28/177 84/28/177
usemtl Material.025
f 50/28/20 69/28/20 51/28/20
f 51/28/21 68/28/21 58/28/21
f 71/28/22 50/28/22 52/28/22
f 53/28/23 74/28/23 52/28/23
f 54/28/24 53/28/24 55/28/24
f 52/28/25 72/28/25 71/28/25
f 56/28/26 53/28/26 57/28/26
f 72/28/27 62/28/27 63/28/27
f 62/28/28 60/28/28 61/28/28
f 70/28/29 66/28/29 69/28/29
f 72/28/30 64/28/30 71/28/30
f 69/28/31 67/28/31 68/28/31
f 71/28/32 65/28/32 70/28/32
f 74/28/33 73/28/33 72/28/33
f 59/28/34 73/28/34 56/28/34
f 28/28/35 59/28/35 27/28/35
f 21/28/36 53/28/36 52/28/36
f 38/24/37 25/28/37 58/28/37
f 38/24/38 68/28/38 45/26/38
f 29/28/39 60/28/39 28/28/39
f 54/28/40 22/28/40 26/28/40
f 30/28/41 61/28/41 29/28/41
f 55/28/42 23/28/42 22/28/42
f 31/28/43 62/28/43 30/28/43
f 24/28/44 57/28/44 20/28/44
f 32/28/45 63/28/45 31/28/45
f 25/28/46 51/28/46 58/28/46
f 33/28/47 64/28/47 32/28/47
f 20/28/48 54/28/48 26/28/48
f 19/28/49 51/28/49 18/28/49
f 34/28/50 65/28/50 33/28/50
f 27/28/51 56/28/51 24/28/51
f 19/28/52 52/28/52 50/28/52
f 34/28/53 67/28/53 66/28/53
f 89/28/74 108/28/74 109/28/74
f 107/28/75 90/28/75 97/28/75
f 89/28/76 110/28/76 91/28/76
f 92/28/77 91/28/77 113/28/77
f 93/28/78 92/28/78 96/28/78
f 91/28/79 111/28/79 113/28/79
f 95/28/80 92/28/80 113/28/80
f 101/28/81 111/28/81 102/28/81
f 99/28/82 101/28/82 100/28/82
f 105/28/83 109/28/83 108/28/83
f 103/28/84 111/28/84 110/28/84
f 106/28/85 108/28/85 107/28/85
f 104/28/86 110/28/86 109/28/86
f 112/28/87 113/28/87 111/28/87
f 112/28/88 98/28/88 95/28/88
f 28/28/89 98/28/89 99/28/89
f 21/28/90 92/28/90 23/28/90
f 77/24/91 25/28/91 4/25/91
f 77/24/92 107/28/92 97/28/92
f 29/28/93 99/28/93 100/28/93
f 22/28/94 93/28/94 26/28/94
f 30/28/95 100/28/95 101/28/95
f 23/28/96 94/28/96 22/28/96
f 31/28/97 101/28/97 102/28/97
f 24/28/98 96/28/98 95/28/98
f 102/28/99 32/28/99 31/28/99
f 25/28/100 90/28/100 18/28/100
f 103/28/101 33/28/101 32/28/101
f 20/28/102 93/28/102 96/28/102
f 90/28/103 19/28/103 18/28/103
f 104/28/104 34/28/104 33/28/104
f 27/28/105 95/28/105 98/28/105
f 19/28/106 91/28/106 21/28/106
f 34/28/107 106/28/107 35/28/107
f 50/28/110 70/28/110 69/28/110
f 51/28/111 69/28/111 68/28/111
f 71/28/112 70/28/112 50/28/112
f 54/28/113 57/28/113 53/28/113
f 52/28/114 74/28/114 72/28/114
f 56/28/115 74/28/115 53/28/115
f 72/28/116 73/28/116 62/28/116
f 62/28/117 73/28/117 60/28/117
f 70/28/118 65/28/118 66/28/118
f 72/28/119 63/28/119 64/28/119
f 69/28/120 66/28/120 67/28/120
f 71/28/121 64/28/121 65/28/121
f 74/28/122 56/28/122 73/28/122
f 59/28/123 60/28/123 73/28/123
f 28/28/124 60/28/124 59/28/124
f 21/28/125 23/28/125 53/28/125
f 38/24/126 4/25/126 25/28/126
f 38/24/127 58/28/127 68/28/127
f 29/28/128 61/28/128 60/28/128
f 54/28/129 55/28/129 22/28/129
f 30/28/130 62/28/130 61/28/130
f 55/28/131 53/28/131 23/28/131
f 31/28/132 63/28/132 62/28/132
f 24/28/133 56/28/133 57/28/133
f 32/28/134 64/28/134 63/28/134
f 25/28/135 18/28/135 51/28/135
f 33/28/136 65/28/136 64/28/136
f 20/28/137 57/28/137 54/28/137
f 19/28/138 50/28/138 51/28/138
f 34/28/139 66/28/139 65/28/139
f 27/28/140 59/28/140 56/28/140
f 19/28/141 21/28/141 52/28/141
f 34/28/142 35/28/142 67/28/142
f 89/28/144 90/28/144 108/28/144
f 107/28/145 108/28/145 90/28/145
f 89/28/146 109/28/146 110/28/146
f 93/28/147 94/28/147 92/28/147
f 91/28/148 110/28/148 111/28/148
f 95/28/149 96/28/149 92/28/149
f 101/28/150 112/28/150 111/28/150
f 99/28/151 112/28/151 101/28/151
f 105/28/152 104/28/152 109/28/152
f 103/28/153 102/28/153 111/28/153
f 106/28/154 105/28/154 108/28/154
f 104/28/155 103/28/155 110/28/155
f 112/28/156 95/28/156 113/28/156
f 112/28/157 99/28/157 98/28/157
f 28/28/158 27/28/158 98/28/158
f 21/28/159 91/28/159 92/28/159
f 77/24/160 97/28/160 25/28/160
f 77/24/161 84/26/161 107/28/161
f 29/28/162 28/28/162 99/28/162
f 22/28/163 94/28/163 93/28/163
f 30/28/164 29/28/164 100/28/164
f 23/28/165 92/28/165 94/28/165
f 31/28/166 30/28/166 101/28/166
f 24/28/167 20/28/167 96/28/167
f 102/28/168 103/28/168 32/28/168
f 25/28/169 97/28/169 90/28/169
f 103/28/170 104/28/170 33/28/170
f 20/28/171 26/28/171 93/28/171
f 90/28/172 89/28/172 19/28/172
f 104/28/173 105/28/173 34/28/173
f 27/28/174 24/28/174 95/28/174
f 19/28/175 89/28/175 91/28/175
f 34/28/176 105/28/176 106/28/176
