# Blender 4.1.1
# www.blender.org
mtllib pawn.mtl
o Pawn
v 0.500000 0.000000 -0.500000
v 0.500000 1.725000 -0.275000
v 0.500000 0.000000 -0.012500
v 0.500000 1.571847 -0.205534
v 0.500000 1.352906 -0.264562
v 0.500000 0.141096 -0.010128
v 0.500000 0.527730 -0.211680
v 0.500000 0.195729 -0.038608
v 0.500000 0.629041 -0.305189
v 0.500000 1.168673 -0.204015
v 0.500000 1.134440 -0.293469
v 0.500000 0.420408 -0.155733
v 0.500000 0.334331 -0.017530
v 0.500000 0.915974 -0.322375
v 0.500000 1.233341 -0.206840
v 0.500000 1.288098 -0.343175
v 0.500000 1.800000 -0.500000
v 0.694856 1.725000 -0.387500
v 0.922187 0.000000 -0.256250
v 0.755015 1.571847 -0.352767
v 0.703895 1.352906 -0.382281
v 0.924241 0.141096 -0.255064
v 0.749692 0.527730 -0.355840
v 0.899577 0.195729 -0.269304
v 0.668711 0.629041 -0.402594
v 0.756330 1.168673 -0.352008
v 0.678861 1.134440 -0.396734
v 0.798144 0.420408 -0.327867
v 0.917832 0.334331 -0.258765
v 0.653827 0.915974 -0.411188
v 0.753884 1.233341 -0.353420
v 0.635814 1.288098 -0.421588
v 0.694856 1.725000 -0.612500
v 0.922187 0.000000 -0.743750
v 0.755015 1.571847 -0.647233
v 0.703895 1.352906 -0.617719
v 0.924241 0.141096 -0.744936
v 0.749692 0.527730 -0.644160
v 0.899577 0.195729 -0.730696
v 0.668712 0.629041 -0.597406
v 0.756330 1.168673 -0.647992
v 0.678861 1.134440 -0.603266
v 0.798144 0.420408 -0.672133
v 0.917832 0.334331 -0.741235
v 0.653827 0.915974 -0.588812
v 0.753884 1.233341 -0.646580
v 0.635814 1.288098 -0.578412
v 0.500000 1.725000 -0.725000
v 0.500000 0.000000 -0.987500
v 0.500000 1.571847 -0.794466
v 0.500000 1.352906 -0.735438
v 0.500000 0.141096 -0.989872
v 0.500000 0.527730 -0.788320
v 0.500000 0.195729 -0.961392
v 0.500000 0.629041 -0.694811
v 0.500000 1.168673 -0.795985
v 0.500000 1.134440 -0.706531
v 0.500000 0.420408 -0.844267
v 0.500000 0.334331 -0.982470
v 0.500000 0.915974 -0.677625
v 0.500000 1.233341 -0.793160
v 0.500000 1.288098 -0.656825
v 0.305144 1.725000 -0.612500
v 0.077813 0.000000 -0.743750
v 0.244985 1.571847 -0.647233
v 0.296105 1.352906 -0.617719
v 0.075759 0.141096 -0.744936
v 0.250308 0.527730 -0.644160
v 0.100423 0.195729 -0.730696
v 0.331289 0.629041 -0.597406
v 0.243670 1.168673 -0.647992
v 0.321139 1.134440 -0.603266
v 0.201856 0.420408 -0.672133
v 0.082168 0.334331 -0.741235
v 0.346173 0.915974 -0.588812
v 0.246116 1.233341 -0.646580
v 0.364186 1.288098 -0.578412
v 0.305144 1.725000 -0.387500
v 0.077813 0.000000 -0.256250
v 0.244985 1.571847 -0.352767
v 0.296105 1.352906 -0.382281
v 0.075758 0.141096 -0.255064
v 0.250308 0.527730 -0.355840
v 0.100423 0.195729 -0.269304
v 0.331288 0.629041 -0.402594
v 0.243670 1.168673 -0.352008
v 0.321139 1.134440 -0.396734
v 0.201856 0.420408 -0.327867
v 0.082168 0.334331 -0.258765
v 0.346173 0.915974 -0.411188
v 0.246116 1.233341 -0.353420
v 0.364186 1.288098 -0.421588
vn 0.4999 -0.0146 0.8659
vn 0.9999 -0.0146 -0.0000
vn 0.4999 -0.0146 -0.8659
vn -0.4999 -0.0146 -0.8659
vn -0.9999 -0.0146 -0.0000
vn -0.4999 -0.0146 0.8659
vn 0.4654 0.3656 0.8061
vn 0.9308 0.3656 -0.0000
vn 0.4654 0.3656 -0.8061
vn -0.4654 0.3656 -0.8061
vn -0.9308 0.3656 -0.0000
vn -0.4654 0.3656 0.8061
vn 0.4869 -0.2274 0.8433
vn 0.9738 -0.2274 -0.0000
vn 0.4869 -0.2274 -0.8433
vn -0.4869 -0.2274 -0.8433
vn -0.9738 -0.2274 -0.0000
vn -0.4869 -0.2274 0.8433
vn 0.4557 0.4115 0.7893
vn 0.9114 0.4115 -0.0000
vn 0.4557 0.4115 -0.7893
vn -0.4557 0.4115 -0.7893
vn -0.9114 0.4115 -0.0000
vn -0.4557 0.4115 0.7893
vn 0.3906 0.6244 0.6765
vn 0.7811 0.6244 -0.0000
vn 0.3906 0.6244 -0.6765
vn -0.3906 0.6244 -0.6765
vn -0.7811 0.6244 -0.0000
vn -0.3906 0.6244 0.6765
vn 0.4957 -0.1306 0.8586
vn 0.9914 -0.1306 -0.0000
vn 0.4957 -0.1306 -0.8586
vn -0.4957 -0.1306 -0.8586
vn -0.9914 -0.1306 -0.0000
vn -0.4957 -0.1306 0.8586
vn 0.4993 0.0518 0.8649
vn 0.9987 0.0518 -0.0000
vn 0.4993 0.0518 -0.8649
vn -0.4993 0.0518 -0.8649
vn -0.9987 0.0518 -0.0000
vn -0.4993 0.0518 0.8649
vn 0.2021 -0.9147 0.3500
vn 0.4042 -0.9147 -0.0000
vn 0.2021 -0.9147 -0.3500
vn -0.2021 -0.9147 -0.3500
vn -0.4042 -0.9147 -0.0000
vn -0.2021 -0.9147 0.3500
vn 0.4996 0.0378 0.8654
vn 0.9993 0.0378 -0.0000
vn 0.4996 0.0378 -0.8654
vn -0.4996 0.0378 -0.8654
vn -0.9993 0.0378 -0.0000
vn -0.4996 0.0378 0.8654
vn 0.2919 0.8119 0.5056
vn 0.5839 0.8119 -0.0000
vn 0.2919 0.8119 -0.5056
vn -0.2919 0.8119 -0.5056
vn -0.5839 0.8119 -0.0000
vn -0.2919 0.8119 0.5056
vn 0.4967 -0.1138 0.8604
vn 0.9935 -0.1138 -0.0000
vn 0.4967 -0.1138 -0.8604
vn -0.4967 -0.1138 -0.8604
vn -0.9935 -0.1138 -0.0000
vn -0.4967 -0.1138 0.8604
vn 0.2104 0.9072 0.3644
vn 0.4207 0.9072 -0.0000
vn 0.2104 0.9072 -0.3644
vn -0.2104 0.9072 -0.3644
vn -0.4207 0.9072 -0.0000
vn -0.2104 0.9072 0.3644
vn 0.3447 -0.7243 0.5971
vn 0.6895 -0.7243 -0.0000
vn 0.3447 -0.7243 -0.5971
vn -0.3447 -0.7243 -0.5971
vn -0.6895 -0.7243 -0.0000
vn -0.3447 -0.7243 0.5971
vn 0.1796 0.9333 0.3111
vn 0.3592 0.9333 -0.0000
vn 0.1796 0.9333 -0.3111
vn -0.1796 0.9333 -0.3111
vn -0.3592 0.9333 -0.0000
vn -0.1796 0.9333 0.3111
vn -0.0000 -1.0000 -0.0000
vt 0.301053 0.436483
vt 0.216420 0.402525
vt 0.301053 0.387787
vt 0.216829 0.451150
vt 0.046703 0.405390
vt 0.606872 0.387787
vt 0.642253 0.303739
vt 0.655561 0.388609
vt 0.593628 0.303328
vt 0.642253 0.133999
vt 0.593628 0.134410
vt 0.655561 0.049129
vt 0.473429 0.872177
vt 0.522054 0.702847
vt 0.522054 0.872588
vt 0.844578 0.695722
vt 0.903938 0.665636
vt 0.899868 0.704883
vt 0.849904 0.950871
vt 0.899868 0.858140
vt 0.903938 0.935996
vt 0.844578 0.848979
vt 0.903938 0.818893
vt 0.776979 0.100145
vt 0.722242 0.190142
vt 0.722242 0.112179
vt 0.175682 0.885549
vt 0.085685 0.846170
vt 0.163647 0.846170
vt 0.903938 0.782739
vt 0.775523 0.668726
vt 0.849904 0.644357
vt 0.775523 0.944519
vt 0.844530 0.069582
vt 0.768979 0.049129
vt 0.850926 0.110371
vt 0.776979 0.202177
vt 0.844530 0.232740
vt 0.768979 0.253193
vt 0.775523 0.791262
vt 0.849904 0.797615
vt 0.211155 0.382985
vt 0.290868 0.369103
vt 0.051306 0.385683
vt 0.661879 0.298805
vt 0.674414 0.378741
vt 0.661879 0.138933
vt 0.298827 0.454001
vt 0.283752 0.618807
vt 0.283752 0.458935
vt 0.541680 0.707781
vt 0.541680 0.867653
vt 0.643580 0.605803
vt 0.626029 0.563010
vt 0.659780 0.568303
vt 0.179162 0.264241
vt 0.094838 0.228158
vt 0.162331 0.227019
vt 0.209971 0.678879
vt 0.146978 0.642988
vt 0.181082 0.640965
vt 0.159498 0.681872
vt 0.079789 0.636498
vt 0.456320 0.617771
vt 0.406078 0.540163
vt 0.463351 0.575888
vt 0.743482 0.605803
vt 0.727282 0.568303
vt 0.214009 0.335675
vt 0.297363 0.321159
vt 0.046857 0.338496
vt 0.709135 0.302457
vt 0.722242 0.386045
vt 0.709135 0.135281
vt 0.674414 0.058997
vt 0.722242 0.051693
vt 0.588935 0.704129
vt 0.588935 0.871305
vt 0.631984 0.463997
vt 0.662758 0.468822
vt 0.096137 0.128642
vt 0.157674 0.127603
vt 0.153580 0.543682
vt 0.184675 0.541838
vt 0.092318 0.537764
vt 0.046703 0.627984
vt 0.062151 0.530002
vt 0.724304 0.468822
vt 0.744422 0.711134
vt 0.682447 0.644357
vt 0.771265 0.695637
vt 0.682447 0.675353
vt 0.593628 0.695637
vt 0.620471 0.711134
vt 0.593628 0.798195
vt 0.620471 0.782697
vt 0.682447 0.849474
vt 0.744422 0.782697
vt 0.771265 0.798195
vt 0.228974 0.255566
vt 0.189504 0.302626
vt 0.079273 0.265927
vt 0.225706 0.717605
vt 0.165439 0.721180
vt 0.060058 0.672267
vt 0.448872 0.648028
vt 0.371555 0.564899
vt 0.753175 0.644357
vt 0.256063 0.454001
vt 0.283752 0.505817
vt 0.261365 0.505137
vt 0.256062 0.606578
vt 0.248021 0.454001
vt 0.233670 0.505770
vt 0.225706 0.454980
vt 0.256062 0.505280
vt 0.233670 0.607349
vt 0.256062 0.607839
vt 0.225706 0.658139
vt 0.278455 0.608236
vt 0.256062 0.710305
vt 0.256062 0.608725
vt 0.301053 0.456431
vt 0.448872 0.422630
vt 0.347658 0.472197
vt 0.070232 0.304639
vt 0.584742 0.475441
vt 0.550085 0.598460
vt 0.550085 0.485761
vt 0.584742 0.633381
vt 0.442898 0.702847
vt 0.347658 0.584896
vt 0.621968 0.388609
vt 0.657750 0.394220
vt 0.161423 0.052927
vt 0.089870 0.054135
vt 0.053999 0.049129
vt 0.094506 0.463026
vt 0.165737 0.469907
vt 0.059430 0.454001
vt 0.729313 0.394220
vt 0.301053 0.852575
vt 0.337335 0.770143
vt 0.337335 0.821481
vt 0.301053 0.756607
vt 0.383441 0.741385
vt 0.387241 0.702847
vt 0.429547 0.763965
vt 0.473429 0.745056
vt 0.429547 0.815302
vt 0.473429 0.841025
vt 0.383441 0.844061
vt 0.387241 0.894784
vt 0.870884 0.443018
vt 0.823825 0.388609
vt 0.894474 0.429399
vt 0.823825 0.415849
vt 0.753175 0.429399
vt 0.776765 0.497358
vt 0.753175 0.510978
vt 0.823825 0.524528
vt 0.823825 0.551767
vt 0.870884 0.497358
vt 0.894474 0.510978
vt 0.124666 0.773839
vt 0.046703 0.783675
vt 0.085685 0.721180
vt 0.163647 0.721180
vt 0.202628 0.783675
vt 0.593628 0.302506
vt 0.447341 0.386965
vt 0.447341 0.218047
vt 0.593628 0.133588
vt 0.447341 0.049129
vt 0.301053 0.302506
vt 0.301053 0.133588
vt 0.047935 0.454001
vt 0.606872 0.049950
vt 0.473429 0.703258
vt 0.073650 0.885549
vt 0.771265 0.709794
vt 0.771265 0.863051
vt 0.850926 0.191950
vt 0.298827 0.623741
vt 0.593628 0.597970
vt 0.682447 0.818479
vt 0.248982 0.292268
vt 0.046703 0.709710
vt 0.633887 0.644357
vt 0.278399 0.454188
vt 0.278399 0.608236
vt 0.248021 0.659118
vt 0.278454 0.710794
vt 0.442898 0.386965
vt 0.301053 0.614372
vt 0.065286 0.124336
vt 0.776765 0.443018
s 0
usemtl White_Oak
f 3/1/1 22/2/1 6/3/1
f 19/4/2 37/5/2 22/2/2
f 34/6/3 52/7/3 37/8/3
f 49/9/4 67/10/4 52/7/4
f 64/11/5 82/12/5 67/10/5
f 79/13/6 6/14/6 82/15/6
f 4/16/7 18/17/7 2/18/7
f 20/19/8 33/20/8 18/21/8
f 35/22/9 48/23/9 33/20/9
f 50/24/10 63/25/10 48/26/10
f 65/27/11 78/28/11 63/29/11
f 78/30/12 4/16/12 2/18/12
f 4/16/13 21/31/13 20/32/13
f 21/33/14 35/22/14 20/19/14
f 36/34/15 50/24/15 35/35/15
f 51/36/16 65/37/16 50/24/16
f 65/37/17 81/38/17 80/39/17
f 81/40/18 4/16/18 80/41/18
f 6/3/19 24/42/19 8/43/19
f 22/2/20 39/44/20 24/42/20
f 37/8/21 54/45/21 39/46/21
f 54/45/22 67/10/22 69/47/22
f 67/48/23 84/49/23 69/50/23
f 82/15/24 8/51/24 84/52/24
f 7/53/25 25/54/25 9/55/25
f 23/56/26 40/57/26 25/58/26
f 38/59/27 55/60/27 40/61/27
f 53/62/28 70/63/28 55/60/28
f 68/64/29 85/65/29 70/66/29
f 83/67/30 9/55/30 85/68/30
f 8/43/31 29/69/31 13/70/31
f 24/42/32 44/71/32 29/69/32
f 39/46/33 59/72/33 44/73/33
f 54/45/34 74/74/34 59/72/34
f 74/74/35 84/75/35 89/76/35
f 84/52/36 13/77/36 89/78/36
f 9/55/37 30/79/37 14/80/37
f 25/58/38 45/81/38 30/82/38
f 40/61/39 60/83/39 45/84/39
f 55/60/40 75/85/40 60/83/40
f 75/85/41 85/86/41 90/87/41
f 85/68/42 14/80/42 90/88/42
f 11/89/43 26/90/43 10/91/43
f 27/92/44 41/93/44 26/90/44
f 42/94/45 56/95/45 41/93/45
f 57/96/46 71/97/46 56/95/46
f 71/97/47 87/98/47 86/99/47
f 86/99/48 11/89/48 10/91/48
f 7/100/19 28/101/19 23/56/19
f 28/101/20 38/102/20 23/56/20
f 43/103/21 53/62/21 38/59/21
f 58/104/22 68/105/22 53/62/22
f 73/106/23 83/107/23 68/64/23
f 88/108/24 7/53/24 83/67/24
f 15/109/49 26/110/49 31/111/49
f 26/110/50 46/112/50 31/111/50
f 41/113/51 61/114/51 46/115/51
f 56/116/52 76/117/52 61/114/52
f 71/118/53 91/119/53 76/117/53
f 86/120/54 15/121/54 91/122/54
f 13/123/55 28/124/55 12/125/55
f 29/69/56 43/126/56 28/101/56
f 44/127/57 58/128/57 43/129/57
f 59/130/58 73/106/58 58/128/58
f 74/131/59 88/132/59 73/106/59
f 88/132/60 13/123/60 12/125/60
f 14/80/61 27/133/61 11/134/61
f 27/135/62 45/81/62 42/136/62
f 45/81/63 57/137/63 42/136/63
f 60/83/64 72/138/64 57/139/64
f 75/85/65 87/140/65 72/138/65
f 90/88/66 11/134/66 87/141/66
f 15/142/67 32/143/67 16/144/67
f 31/145/68 47/146/68 32/143/68
f 46/147/69 62/148/69 47/146/69
f 61/149/70 77/150/70 62/148/70
f 76/151/71 92/152/71 77/150/71
f 91/153/72 16/144/72 92/152/72
f 16/154/73 21/155/73 5/156/73
f 32/157/74 36/158/74 21/155/74
f 36/158/75 62/159/75 51/160/75
f 51/160/76 77/161/76 66/162/76
f 66/162/77 92/163/77 81/164/77
f 81/164/78 16/154/78 5/156/78
f 17/165/79 2/166/79 18/167/79
f 17/165/80 18/167/80 33/168/80
f 17/165/81 33/168/81 48/169/81
f 17/165/82 48/169/82 63/29/82
f 17/165/83 63/29/83 78/28/83
f 17/165/84 78/28/84 2/166/84
f 64/170/85 49/171/85 1/172/85
f 79/173/85 64/170/85 1/172/85
f 3/174/85 79/173/85 1/172/85
f 34/175/85 19/176/85 1/172/85
f 19/176/85 3/174/85 1/172/85
f 49/171/85 34/175/85 1/172/85
f 3/1/1 19/4/1 22/2/1
f 19/4/2 34/177/2 37/5/2
f 34/6/3 49/9/3 52/7/3
f 49/9/4 64/11/4 67/10/4
f 64/11/5 79/178/5 82/12/5
f 79/13/6 3/179/6 6/14/6
f 4/16/7 20/32/7 18/17/7
f 20/19/8 35/22/8 33/20/8
f 35/22/9 50/41/9 48/23/9
f 50/24/10 65/37/10 63/25/10
f 65/27/11 80/180/11 78/28/11
f 78/30/12 80/41/12 4/16/12
f 4/16/13 5/181/13 21/31/13
f 21/33/14 36/182/14 35/22/14
f 36/34/15 51/36/15 50/24/15
f 51/36/16 66/183/16 65/37/16
f 65/37/17 66/183/17 81/38/17
f 81/40/18 5/181/18 4/16/18
f 6/3/19 22/2/19 24/42/19
f 22/2/20 37/5/20 39/44/20
f 37/8/21 52/7/21 54/45/21
f 54/45/22 52/7/22 67/10/22
f 67/48/23 82/184/23 84/49/23
f 82/15/24 6/14/24 8/51/24
f 7/53/25 23/185/25 25/54/25
f 23/56/26 38/102/26 40/57/26
f 38/59/27 53/62/27 55/60/27
f 53/62/28 68/105/28 70/63/28
f 68/64/29 83/107/29 85/65/29
f 83/67/30 7/53/30 9/55/30
f 8/43/31 24/42/31 29/69/31
f 24/42/32 39/44/32 44/71/32
f 39/46/33 54/45/33 59/72/33
f 54/45/34 69/47/34 74/74/34
f 74/74/35 69/47/35 84/75/35
f 84/52/36 8/51/36 13/77/36
f 9/55/37 25/54/37 30/79/37
f 25/58/38 40/57/38 45/81/38
f 40/61/39 55/60/39 60/83/39
f 55/60/40 70/63/40 75/85/40
f 75/85/41 70/63/41 85/86/41
f 85/68/42 9/55/42 14/80/42
f 11/89/43 27/92/43 26/90/43
f 27/92/44 42/94/44 41/93/44
f 42/94/45 57/96/45 56/95/45
f 57/96/46 72/186/46 71/97/46
f 71/97/47 72/186/47 87/98/47
f 86/99/48 87/98/48 11/89/48
f 7/100/19 12/187/19 28/101/19
f 28/101/20 43/126/20 38/102/20
f 43/103/21 58/104/21 53/62/21
f 58/104/22 73/188/22 68/105/22
f 73/106/23 88/132/23 83/107/23
f 88/108/24 12/189/24 7/53/24
f 15/109/49 10/190/49 26/110/49
f 26/110/50 41/191/50 46/112/50
f 41/113/51 56/116/51 61/114/51
f 56/116/52 71/118/52 76/117/52
f 71/118/53 86/192/53 91/119/53
f 86/120/54 10/193/54 15/121/54
f 13/123/55 29/194/55 28/124/55
f 29/69/56 44/71/56 43/126/56
f 44/127/57 59/130/57 58/128/57
f 59/130/58 74/131/58 73/106/58
f 74/131/59 89/195/59 88/132/59
f 88/132/60 89/195/60 13/123/60
f 14/80/61 30/79/61 27/133/61
f 27/135/62 30/82/62 45/81/62
f 45/81/63 60/196/63 57/137/63
f 60/83/64 75/85/64 72/138/64
f 75/85/65 90/87/65 87/140/65
f 90/88/66 14/80/66 11/134/66
f 15/142/67 31/145/67 32/143/67
f 31/145/68 46/147/68 47/146/68
f 46/147/69 61/149/69 62/148/69
f 61/149/70 76/151/70 77/150/70
f 76/151/71 91/153/71 92/152/71
f 91/153/72 15/142/72 16/144/72
f 16/154/73 32/157/73 21/155/73
f 32/157/74 47/197/74 36/158/74
f 36/158/75 47/197/75 62/159/75
f 51/160/76 62/159/76 77/161/76
f 66/162/77 77/161/77 92/163/77
f 81/164/78 92/163/78 16/154/78
