# Blender 4.1.1
# www.blender.org
mtllib pawn.mtl
o Pawn
v 0.500000 0.000000 -0.500000
v 0.500000 1.725000 -0.275000
v 0.500000 0.000000 -0.012500
v 0.500000 1.571847 -0.205534
v 0.500000 1.352906 -0.264562
v 0.500000 0.141096 -0.010128
v 0.500000 0.527730 -0.211680
v 0.500000 0.195729 -0.038608
v 0.500000 0.629041 -0.305189
v 0.500000 1.168673 -0.204015
v 0.500000 1.134440 -0.293469
v 0.500000 0.420408 -0.155733
v 0.500000 0.334331 -0.017530
v 0.500000 0.915974 -0.322375
v 0.500000 1.233341 -0.206840
v 0.500000 1.288098 -0.343175
v 0.500000 1.800000 -0.500000
v 0.694856 1.725000 -0.387500
v 0.922187 0.000000 -0.256250
v 0.755015 1.571847 -0.352767
v 0.703895 1.352906 -0.382281
v 0.924241 0.141096 -0.255064
v 0.749692 0.527730 -0.355840
v 0.899577 0.195729 -0.269304
v 0.668711 0.629041 -0.402594
v 0.756330 1.168673 -0.352008
v 0.678861 1.134440 -0.396734
v 0.798144 0.420408 -0.327867
v 0.917832 0.334331 -0.258765
v 0.653827 0.915974 -0.411188
v 0.753884 1.233341 -0.353420
v 0.635814 1.288098 -0.421588
v 0.694856 1.725000 -0.612500
v 0.922187 0.000000 -0.743750
v 0.755015 1.571847 -0.647233
v 0.703895 1.352906 -0.617719
v 0.924241 0.141096 -0.744936
v 0.749692 0.527730 -0.644160
v 0.899577 0.195729 -0.730696
v 0.668712 0.629041 -0.597406
v 0.756330 1.168673 -0.647992
v 0.678861 1.134440 -0.603266
v 0.798144 0.420408 -0.672133
v 0.917832 0.334331 -0.741235
v 0.653827 0.915974 -0.588812
v 0.753884 1.233341 -0.646580
v 0.635814 1.288098 -0.578412
v 0.500000 1.725000 -0.725000
v 0.500000 0.000000 -0.987500
v 0.500000 1.571847 -0.794466
v 0.500000 1.352906 -0.735438
v 0.500000 0.141096 -0.989872
v 0.500000 0.527730 -0.788320
v 0.500000 0.195729 -0.961392
v 0.500000 0.629041 -0.694811
v 0.500000 1.168673 -0.795985
v 0.500000 1.134440 -0.706531
v 0.500000 0.420408 -0.844267
v 0.500000 0.334331 -0.982470
v 0.500000 0.915974 -0.677625
v 0.500000 1.233341 -0.793160
v 0.500000 1.288098 -0.656825
v 0.305144 1.725000 -0.612500
v 0.077813 0.000000 -0.743750
v 0.244985 1.571847 -0.647233
v 0.296105 1.352906 -0.617719
v 0.075759 0.141096 -0.744936
v 0.250308 0.527730 -0.644160
v 0.100423 0.195729 -0.730696
v 0.331289 0.629041 -0.597406
v 0.243670 1.168673 -0.647992
v 0.321139 1.134440 -0.603266
v 0.201856 0.420408 -0.672133
v 0.082168 0.334331 -0.741235
v 0.346173 0.915974 -0.588812
v 0.246116 1.233341 -0.646580
v 0.364186 1.288098 -0.578412
v 0.305144 1.725000 -0.387500
v 0.077813 0.000000 -0.256250
v 0.244985 1.571847 -0.352767
v 0.296105 1.352906 -0.382281
v 0.075758 0.141096 -0.255064
v 0.250308 0.527730 -0.355840
v 0.100423 0.195729 -0.269304
v 0.331288 0.629041 -0.402594
v 0.243670 1.168673 -0.352008
v 0.321139 1.134440 -0.396734
v 0.201856 0.420408 -0.327867
v 0.082168 0.334331 -0.258765
v 0.346173 0.915974 -0.411188
v 0.246116 1.233341 -0.353420
v 0.364186 1.288098 -0.421588
vn 0.4999 -0.0146 0.8659
vn 0.9999 -0.0146 -0.0000
vn 0.4999 -0.0146 -0.8659
vn -0.4999 -0.0146 -0.8659
vn -0.9999 -0.0146 -0.0000
vn -0.4999 -0.0146 0.8659
vn 0.4654 0.3656 0.8061
vn 0.9308 0.3656 -0.0000
vn 0.4654 0.3656 -0.8061
vn -0.4654 0.3656 -0.8061
vn -0.9308 0.3656 -0.0000
vn -0.4654 0.3656 0.8061
vn 0.4869 -0.2274 0.8433
vn 0.9738 -0.2274 -0.0000
vn 0.4869 -0.2274 -0.8433
vn -0.4869 -0.2274 -0.8433
vn -0.9738 -0.2274 -0.0000
vn -0.4869 -0.2274 0.8433
vn 0.4557 0.4115 0.7893
vn 0.9114 0.4115 -0.0000
vn 0.4557 0.4115 -0.7893
vn -0.4557 0.4115 -0.7893
vn -0.9114 0.4115 -0.0000
vn -0.4557 0.4115 0.7893
vn 0.3906 0.6244 0.6765
vn 0.7811 0.6244 -0.0000
vn 0.3906 0.6244 -0.6765
vn -0.3906 0.6244 -0.6765
vn -0.7811 0.6244 -0.0000
vn -0.3906 0.6244 0.6765
vn 0.4957 -0.1306 0.8586
vn 0.9914 -0.1306 -0.0000
vn 0.4957 -0.1306 -0.8586
vn -0.4957 -0.1306 -0.8586
vn -0.9914 -0.1306 -0.0000
vn -0.4957 -0.1306 0.8586
vn 0.4993 0.0518 0.8649
vn 0.9987 0.0518 -0.0000
vn 0.4993 0.0518 -0.8649
vn -0.4993 0.0518 -0.8649
vn -0.9987 0.0518 -0.0000
vn -0.4993 0.0518 0.8649
vn 0.2021 -0.9147 0.3500
vn 0.4042 -0.9147 -0.0000
vn 0.2021 -0.9147 -0.3500
vn -0.2021 -0.9147 -0.3500
vn -0.4042 -0.9147 -0.0000
vn -0.2021 -0.9147 0.3500
vn 0.4996 0.0378 0.8654
vn 0.9993 0.0378 -0.0000
vn 0.4996 0.0378 -0.8654
vn -0.4996 0.0378 -0.8654
vn -0.9993 0.0378 -0.0000
vn -0.4996 0.0378 0.8654
vn 0.2919 0.8119 0.5056
vn 0.5839 0.8119 -0.0000
vn 0.2919 0.8119 -0.5056
vn -0.2919 0.8119 -0.5056
vn -0.5839 0.8119 -0.0000
vn -0.2919 0.8119 0.5056
vn 0.4967 -0.1138 0.8604
vn 0.9935 -0.1138 -0.0000
vn 0.4967 -0.1138 -0.8604
vn -0.4967 -0.1138 -0.8604
vn -0.9935 -0.1138 -0.0000
vn -0.4967 -0.1138 0.8604
vn 0.2104 0.9072 0.3644
vn 0.4207 0.9072 -0.0000
vn 0.2104 0.9072 -0.3644
vn -0.2104 0.9072 -0.3644
vn -0.4207 0.9072 -0.0000
vn -0.2104 0.9072 0.3644
vn 0.3447 -0.7243 0.5971
vn 0.6895 -0.7243 -0.0000
vn 0.3447 -0.7243 -0.5971
vn -0.3447 -0.7243 -0.5971
vn -0.6895 -0.7243 -0.0000
vn -0.3447 -0.7243 0.5971
vn 0.1796 0.9333 0.3111
vn 0.3592 0.9333 -0.0000
vn 0.1796 0.9333 -0.3111
vn -0.1796 0.9333 -0.3111
vn -0.3592 0.9333 -0.0000
vn -0.1796 0.9333 0.3111
vn -0.0000 -1.0000 -0.0000
vt 0.434297 0.485048
vt 0.414374 0.477054
vt 0.434297 0.473584
vt 0.414471 0.488500
vt 0.374422 0.477728
vt 0.506289 0.473585
vt 0.514617 0.453799
vt 0.517750 0.473778
vt 0.503171 0.453703
vt 0.514617 0.413842
vt 0.503171 0.413938
vt 0.517750 0.393863
vt 0.474875 0.587612
vt 0.486322 0.547751
vt 0.486322 0.587709
vt 0.562246 0.546074
vt 0.576219 0.538991
vt 0.575261 0.548230
vt 0.563499 0.606137
vt 0.575261 0.584308
vt 0.576219 0.602635
vt 0.562246 0.582151
vt 0.576219 0.575069
vt 0.546332 0.405872
vt 0.533447 0.427058
vt 0.533447 0.408705
vt 0.404784 0.590760
vt 0.383599 0.581490
vt 0.401951 0.581490
vt 0.576219 0.566558
vt 0.545990 0.539719
vt 0.563499 0.533982
vt 0.545990 0.604642
vt 0.562234 0.398678
vt 0.544449 0.393863
vt 0.563740 0.408280
vt 0.546332 0.429891
vt 0.562234 0.437086
vt 0.544449 0.441900
vt 0.545990 0.568564
vt 0.563499 0.570060
vt 0.413135 0.472454
vt 0.431900 0.469186
vt 0.375506 0.473089
vt 0.519237 0.452638
vt 0.522188 0.471455
vt 0.519237 0.415003
vt 0.433773 0.489172
vt 0.430225 0.527968
vt 0.430225 0.490333
vt 0.490942 0.548913
vt 0.490942 0.586547
vt 0.514930 0.524907
vt 0.510798 0.514833
vt 0.518743 0.516079
vt 0.405604 0.444501
vt 0.385753 0.436007
vt 0.401641 0.435739
vt 0.412856 0.542109
vt 0.398027 0.533660
vt 0.406056 0.533184
vt 0.400975 0.542813
vt 0.382211 0.532132
vt 0.470848 0.527724
vt 0.459021 0.509455
vt 0.472503 0.517864
vt 0.538447 0.524907
vt 0.534634 0.516079
vt 0.413807 0.461317
vt 0.433429 0.457900
vt 0.374458 0.461981
vt 0.530362 0.453497
vt 0.533447 0.473174
vt 0.530362 0.414143
vt 0.522188 0.396186
vt 0.533447 0.394467
vt 0.502066 0.548053
vt 0.502066 0.587407
vt 0.512200 0.491525
vt 0.519444 0.492661
vt 0.386059 0.412581
vt 0.400545 0.412336
vt 0.399581 0.510283
vt 0.406901 0.509849
vt 0.385160 0.508890
vt 0.374422 0.530128
vt 0.378059 0.507063
vt 0.533933 0.492661
vt 0.538668 0.549702
vt 0.524079 0.533982
vt 0.544987 0.546054
vt 0.524079 0.541279
vt 0.503171 0.546054
vt 0.509490 0.549702
vt 0.503171 0.570196
vt 0.509490 0.566548
vt 0.524079 0.582268
vt 0.538668 0.566548
vt 0.544987 0.570196
vt 0.417330 0.442459
vt 0.408038 0.453537
vt 0.382089 0.444898
vt 0.416560 0.551225
vt 0.402373 0.552067
vt 0.377566 0.540552
vt 0.469094 0.534846
vt 0.450894 0.515278
vt 0.540729 0.533982
vt 0.423706 0.489172
vt 0.430225 0.501369
vt 0.424955 0.501209
vt 0.423706 0.525089
vt 0.421813 0.489172
vt 0.418435 0.501358
vt 0.416560 0.489402
vt 0.423706 0.501243
vt 0.418435 0.525270
vt 0.423706 0.525386
vt 0.416560 0.537227
vt 0.428978 0.525479
vt 0.423706 0.549507
vt 0.423706 0.525594
vt 0.434297 0.489744
vt 0.469094 0.481787
vt 0.445268 0.493455
vt 0.379961 0.454011
vt 0.501079 0.494219
vt 0.492920 0.523178
vt 0.492920 0.496648
vt 0.501079 0.531399
vt 0.467688 0.547751
vt 0.445268 0.519985
vt 0.509842 0.473778
vt 0.518265 0.475099
vt 0.401428 0.394757
vt 0.384584 0.395041
vt 0.376140 0.393863
vt 0.385675 0.491296
vt 0.402443 0.492916
vt 0.377418 0.489172
vt 0.535112 0.475099
vt 0.434297 0.582998
vt 0.442838 0.563593
vt 0.442838 0.575678
vt 0.434297 0.560406
vt 0.453692 0.556823
vt 0.454586 0.547751
vt 0.464545 0.562138
vt 0.474875 0.557687
vt 0.464545 0.574224
vt 0.474875 0.580279
vt 0.453692 0.580993
vt 0.454586 0.592934
vt 0.568438 0.486586
vt 0.557360 0.473778
vt 0.573991 0.483380
vt 0.557360 0.480190
vt 0.540729 0.483380
vt 0.546282 0.499378
vt 0.540729 0.502584
vt 0.557360 0.505774
vt 0.557360 0.512186
vt 0.568438 0.499378
vt 0.573991 0.502584
vt 0.392775 0.564463
vt 0.374422 0.566778
vt 0.383599 0.552067
vt 0.401951 0.552067
vt 0.411128 0.566778
vt 0.503171 0.453509
vt 0.468734 0.473391
vt 0.468734 0.433627
vt 0.503171 0.413745
vt 0.468734 0.393863
vt 0.434297 0.453509
vt 0.434297 0.413745
vt 0.374712 0.489172
vt 0.506288 0.394056
vt 0.474875 0.547848
vt 0.380766 0.590760
vt 0.544987 0.549386
vt 0.544987 0.585464
vt 0.563740 0.427484
vt 0.433773 0.529129
vt 0.503171 0.523063
vt 0.524079 0.574971
vt 0.422039 0.451099
vt 0.374422 0.549367
vt 0.512648 0.533982
vt 0.428964 0.489216
vt 0.428964 0.525479
vt 0.421813 0.537457
vt 0.428978 0.549622
vt 0.467688 0.473391
vt 0.434297 0.526924
vt 0.378797 0.411567
vt 0.546282 0.486586
s 0
usemtl White_Oak
f 3/1/1 22/2/1 6/3/1
f 19/4/2 37/5/2 22/2/2
f 34/6/3 52/7/3 37/8/3
f 49/9/4 67/10/4 52/7/4
f 64/11/5 82/12/5 67/10/5
f 79/13/6 6/14/6 82/15/6
f 4/16/7 18/17/7 2/18/7
f 20/19/8 33/20/8 18/21/8
f 35/22/9 48/23/9 33/20/9
f 50/24/10 63/25/10 48/26/10
f 65/27/11 78/28/11 63/29/11
f 78/30/12 4/16/12 2/18/12
f 4/16/13 21/31/13 20/32/13
f 21/33/14 35/22/14 20/19/14
f 36/34/15 50/24/15 35/35/15
f 51/36/16 65/37/16 50/24/16
f 65/37/17 81/38/17 80/39/17
f 81/40/18 4/16/18 80/41/18
f 6/3/19 24/42/19 8/43/19
f 22/2/20 39/44/20 24/42/20
f 37/8/21 54/45/21 39/46/21
f 54/45/22 67/10/22 69/47/22
f 67/48/23 84/49/23 69/50/23
f 82/15/24 8/51/24 84/52/24
f 7/53/25 25/54/25 9/55/25
f 23/56/26 40/57/26 25/58/26
f 38/59/27 55/60/27 40/61/27
f 53/62/28 70/63/28 55/60/28
f 68/64/29 85/65/29 70/66/29
f 83/67/30 9/55/30 85/68/30
f 8/43/31 29/69/31 13/70/31
f 24/42/32 44/71/32 29/69/32
f 39/46/33 59/72/33 44/73/33
f 54/45/34 74/74/34 59/72/34
f 74/74/35 84/75/35 89/76/35
f 84/52/36 13/77/36 89/78/36
f 9/55/37 30/79/37 14/80/37
f 25/58/38 45/81/38 30/82/38
f 40/61/39 60/83/39 45/84/39
f 55/60/40 75/85/40 60/83/40
f 75/85/41 85/86/41 90/87/41
f 85/68/42 14/80/42 90/88/42
f 11/89/43 26/90/43 10/91/43
f 27/92/44 41/93/44 26/90/44
f 42/94/45 56/95/45 41/93/45
f 57/96/46 71/97/46 56/95/46
f 71/97/47 87/98/47 86/99/47
f 86/99/48 11/89/48 10/91/48
f 7/100/19 28/101/19 23/56/19
f 28/101/20 38/102/20 23/56/20
f 43/103/21 53/62/21 38/59/21
f 58/104/22 68/105/22 53/62/22
f 73/106/23 83/107/23 68/64/23
f 88/108/24 7/53/24 83/67/24
f 15/109/49 26/110/49 31/111/49
f 26/110/50 46/112/50 31/111/50
f 41/113/51 61/114/51 46/115/51
f 56/116/52 76/117/52 61/114/52
f 71/118/53 91/119/53 76/117/53
f 86/120/54 15/121/54 91/122/54
f 13/123/55 28/124/55 12/125/55
f 29/69/56 43/126/56 28/101/56
f 44/127/57 58/128/57 43/129/57
f 59/130/58 73/106/58 58/128/58
f 74/131/59 88/132/59 73/106/59
f 88/132/60 13/123/60 12/125/60
f 14/80/61 27/133/61 11/134/61
f 27/135/62 45/81/62 42/136/62
f 45/81/63 57/137/63 42/136/63
f 60/83/64 72/138/64 57/139/64
f 75/85/65 87/140/65 72/138/65
f 90/88/66 11/134/66 87/141/66
f 15/142/67 32/143/67 16/144/67
f 31/145/68 47/146/68 32/143/68
f 46/147/69 62/148/69 47/146/69
f 61/149/70 77/150/70 62/148/70
f 76/151/71 92/152/71 77/150/71
f 91/153/72 16/144/72 92/152/72
f 16/154/73 21/155/73 5/156/73
f 32/157/74 36/158/74 21/155/74
f 36/158/75 62/159/75 51/160/75
f 51/160/76 77/161/76 66/162/76
f 66/162/77 92/163/77 81/164/77
f 81/164/78 16/154/78 5/156/78
f 17/165/79 2/166/79 18/167/79
f 17/165/80 18/167/80 33/168/80
f 17/165/81 33/168/81 48/169/81
f 17/165/82 48/169/82 63/29/82
f 17/165/83 63/29/83 78/28/83
f 17/165/84 78/28/84 2/166/84
f 64/170/85 49/171/85 1/172/85
f 79/173/85 64/170/85 1/172/85
f 3/174/85 79/173/85 1/172/85
f 34/175/85 19/176/85 1/172/85
f 19/176/85 3/174/85 1/172/85
f 49/171/85 34/175/85 1/172/85
f 3/1/1 19/4/1 22/2/1
f 19/4/2 34/177/2 37/5/2
f 34/6/3 49/9/3 52/7/3
f 49/9/4 64/11/4 67/10/4
f 64/11/5 79/178/5 82/12/5
f 79/13/6 3/179/6 6/14/6
f 4/16/7 20/32/7 18/17/7
f 20/19/8 35/22/8 33/20/8
f 35/22/9 50/41/9 48/23/9
f 50/24/10 65/37/10 63/25/10
f 65/27/11 80/180/11 78/28/11
f 78/30/12 80/41/12 4/16/12
f 4/16/13 5/181/13 21/31/13
f 21/33/14 36/182/14 35/22/14
f 36/34/15 51/36/15 50/24/15
f 51/36/16 66/183/16 65/37/16
f 65/37/17 66/183/17 81/38/17
f 81/40/18 5/181/18 4/16/18
f 6/3/19 22/2/19 24/42/19
f 22/2/20 37/5/20 39/44/20
f 37/8/21 52/7/21 54/45/21
f 54/45/22 52/7/22 67/10/22
f 67/48/23 82/184/23 84/49/23
f 82/15/24 6/14/24 8/51/24
f 7/53/25 23/185/25 25/54/25
f 23/56/26 38/102/26 40/57/26
f 38/59/27 53/62/27 55/60/27
f 53/62/28 68/105/28 70/63/28
f 68/64/29 83/107/29 85/65/29
f 83/67/30 7/53/30 9/55/30
f 8/43/31 24/42/31 29/69/31
f 24/42/32 39/44/32 44/71/32
f 39/46/33 54/45/33 59/72/33
f 54/45/34 69/47/34 74/74/34
f 74/74/35 69/47/35 84/75/35
f 84/52/36 8/51/36 13/77/36
f 9/55/37 25/54/37 30/79/37
f 25/58/38 40/57/38 45/81/38
f 40/61/39 55/60/39 60/83/39
f 55/60/40 70/63/40 75/85/40
f 75/85/41 70/63/41 85/86/41
f 85/68/42 9/55/42 14/80/42
f 11/89/43 27/92/43 26/90/43
f 27/92/44 42/94/44 41/93/44
f 42/94/45 57/96/45 56/95/45
f 57/96/46 72/186/46 71/97/46
f 71/97/47 72/186/47 87/98/47
f 86/99/48 87/98/48 11/89/48
f 7/100/19 12/187/19 28/101/19
f 28/101/20 43/126/20 38/102/20
f 43/103/21 58/104/21 53/62/21
f 58/104/22 73/188/22 68/105/22
f 73/106/23 88/132/23 83/107/23
f 88/108/24 12/189/24 7/53/24
f 15/109/49 10/190/49 26/110/49
f 26/110/50 41/191/50 46/112/50
f 41/113/51 56/116/51 61/114/51
f 56/116/52 71/118/52 76/117/52
f 71/118/53 86/192/53 91/119/53
f 86/120/54 10/193/54 15/121/54
f 13/123/55 29/194/55 28/124/55
f 29/69/56 44/71/56 43/126/56
f 44/127/57 59/130/57 58/128/57
f 59/130/58 74/131/58 73/106/58
f 74/131/59 89/195/59 88/132/59
f 88/132/60 89/195/60 13/123/60
f 14/80/61 30/79/61 27/133/61
f 27/135/62 30/82/62 45/81/62
f 45/81/63 60/196/63 57/137/63
f 60/83/64 75/85/64 72/138/64
f 75/85/65 90/87/65 87/140/65
f 90/88/66 14/80/66 11/134/66
f 15/142/67 31/145/67 32/143/67
f 31/145/68 46/147/68 47/146/68
f 46/147/69 61/149/69 62/148/69
f 61/149/70 76/151/70 77/150/70
f 76/151/71 91/153/71 92/152/71
f 91/153/72 15/142/72 16/144/72
f 16/154/73 32/157/73 21/155/73
f 32/157/74 47/197/74 36/158/74
f 36/158/75 47/197/75 62/159/75
f 51/160/76 62/159/76 77/161/76
f 66/162/77 77/161/77 92/163/77
f 81/164/78 92/163/78 16/154/78
