# Blender 4.1.1
# www.blender.org
mtllib scene.mtl
o Pawn
v 0.500000 1.725000 2.725000
v 0.500000 0.000000 2.987500
v 0.500000 1.800000 2.500000
v 0.500000 1.571847 2.794466
v 0.500000 1.352906 2.735438
v 0.500000 0.141096 2.989872
v 0.500000 0.527730 2.788320
v 0.500000 0.195729 2.961392
v 0.500000 0.629041 2.694811
v 0.500000 1.168673 2.795985
v 0.500000 1.134440 2.706531
v 0.500000 0.420408 2.844267
v 0.500000 0.334331 2.982470
v 0.500000 0.915974 2.677625
v 0.500000 1.233341 2.793160
v 0.500000 1.288098 2.656825
v 0.500000 0.000000 2.500000
v 0.500000 1.800000 2.500000
v 0.500000 0.000000 2.500000
v 0.694856 1.725000 2.612500
v 0.922187 0.000000 2.743750
v 0.500000 1.800000 2.500000
v 0.755015 1.571847 2.647233
v 0.703895 1.352906 2.617719
v 0.924241 0.141096 2.744936
v 0.749692 0.527730 2.644160
v 0.899577 0.195729 2.730696
v 0.668711 0.629041 2.597406
v 0.756330 1.168673 2.647992
v 0.678861 1.134440 2.603266
v 0.798144 0.420408 2.672133
v 0.917832 0.334331 2.741235
v 0.653827 0.915974 2.588812
v 0.753884 1.233341 2.646580
v 0.635814 1.288098 2.578412
v 0.500000 0.000000 2.500000
v 0.500000 1.800000 2.500000
v 0.500000 0.000000 2.500000
v 0.694856 1.725000 2.387500
v 0.922187 0.000000 2.256250
v 0.500000 1.800000 2.500000
v 0.755015 1.571847 2.352767
v 0.703895 1.352906 2.382281
v 0.924241 0.141096 2.255064
v 0.749692 0.527730 2.355840
v 0.899577 0.195729 2.269304
v 0.668711 0.629041 2.402594
v 0.756330 1.168673 2.352008
v 0.678861 1.134440 2.396734
v 0.798144 0.420408 2.327867
v 0.917832 0.334331 2.258765
v 0.653827 0.915974 2.411188
v 0.753884 1.233341 2.353420
v 0.635814 1.288098 2.421588
v 0.500000 0.000000 2.500000
v 0.500000 1.800000 2.500000
v 0.500000 0.000000 2.500000
v 0.500000 1.725000 2.275000
v 0.500000 0.000000 2.012500
v 0.500000 1.800000 2.500000
v 0.500000 1.571847 2.205534
v 0.500000 1.352906 2.264562
v 0.500000 0.141096 2.010128
v 0.500000 0.527730 2.211680
v 0.500000 0.195729 2.038608
v 0.500000 0.629041 2.305189
v 0.500000 1.168673 2.204015
v 0.500000 1.134440 2.293469
v 0.500000 0.420408 2.155733
v 0.500000 0.334331 2.017530
v 0.500000 0.915974 2.322376
v 0.500000 1.233341 2.206840
v 0.500000 1.288098 2.343175
v 0.500000 0.000000 2.500000
v 0.500000 1.800000 2.500000
v 0.500000 0.000000 2.500000
v 0.305144 1.725000 2.387500
v 0.077813 0.000000 2.256250
v 0.500000 1.800000 2.500000
v 0.244985 1.571847 2.352767
v 0.296105 1.352906 2.382281
v 0.075758 0.141096 2.255064
v 0.250308 0.527730 2.355840
v 0.100423 0.195729 2.269304
v 0.331288 0.629041 2.402594
v 0.243670 1.168673 2.352008
v 0.321139 1.134440 2.396734
v 0.201856 0.420408 2.327867
v 0.082168 0.334331 2.258765
v 0.346173 0.915974 2.411188
v 0.246116 1.233341 2.353420
v 0.364186 1.288098 2.421588
v 0.500000 0.000000 2.500000
v 0.500000 1.800000 2.500000
v 0.500000 0.000000 2.500000
v 0.305144 1.725000 2.612500
v 0.077813 0.000000 2.743750
v 0.500000 1.800000 2.500000
v 0.244985 1.571847 2.647233
v 0.296105 1.352906 2.617719
v 0.075758 0.141096 2.744936
v 0.250308 0.527730 2.644160
v 0.100423 0.195729 2.730696
v 0.331288 0.629041 2.597406
v 0.243670 1.168673 2.647992
v 0.321139 1.134440 2.603266
v 0.201856 0.420408 2.672133
v 0.082168 0.334331 2.741235
v 0.346173 0.915974 2.588812
v 0.246116 1.233341 2.646580
v 0.364186 1.288098 2.578412
v 0.500000 0.000000 2.500000
v 0.500000 1.800000 2.500000
v 0.500000 0.000000 2.500000
vn 0.9973 0.0693 0.0231
vn 0.9914 -0.1308 -0.0000
vn -0.9958 -0.0000 0.0910
vn 0.9993 0.0361 -0.0120
vn -0.0000 -1.0000 -0.0000
vn -0.9952 -0.0000 -0.0983
vn 0.4999 -0.0146 0.8659
vn 0.9999 -0.0146 -0.0000
vn 0.4999 -0.0146 -0.8659
vn -0.4999 -0.0146 -0.8659
vn -0.9999 -0.0146 -0.0000
vn -0.4999 -0.0146 0.8659
vn 0.4654 0.3656 0.8061
vn 0.9308 0.3656 -0.0000
vn 0.4654 0.3656 -0.8061
vn -0.4654 0.3656 -0.8061
vn -0.9308 0.3656 -0.0000
vn -0.4654 0.3656 0.8061
vn 0.4869 -0.2274 0.8433
vn 0.9738 -0.2274 -0.0000
vn 0.4869 -0.2274 -0.8433
vn -0.4869 -0.2274 -0.8433
vn -0.9738 -0.2274 -0.0000
vn -0.4869 -0.2274 0.8433
vn 0.4557 0.4115 0.7893
vn 0.9114 0.4115 -0.0000
vn 0.4557 0.4115 -0.7893
vn -0.4557 0.4115 -0.7893
vn -0.9114 0.4115 -0.0000
vn -0.4557 0.4115 0.7893
vn 0.3906 0.6244 0.6765
vn 0.7811 0.6244 -0.0000
vn 0.3906 0.6244 -0.6765
vn -0.3906 0.6244 -0.6765
vn -0.7811 0.6244 -0.0000
vn -0.3906 0.6244 0.6765
vn 0.4957 -0.1306 0.8586
vn 0.9914 -0.1306 -0.0000
vn 0.4957 -0.1306 -0.8586
vn -0.4957 -0.1306 -0.8586
vn -0.9914 -0.1306 -0.0000
vn -0.4957 -0.1306 0.8586
vn 0.4993 0.0518 0.8649
vn 0.9987 0.0518 -0.0000
vn 0.4993 0.0518 -0.8649
vn -0.4993 0.0518 -0.8649
vn -0.9987 0.0518 -0.0000
vn -0.4993 0.0518 0.8649
vn 0.2021 -0.9147 0.3500
vn 0.4042 -0.9147 -0.0000
vn 0.2021 -0.9147 -0.3500
vn -0.2021 -0.9147 -0.3500
vn -0.4042 -0.9147 -0.0000
vn -0.2021 -0.9147 0.3500
vn 0.4996 0.0378 0.8654
vn 0.9993 0.0378 -0.0000
vn 0.4996 0.0378 -0.8654
vn -0.4996 0.0378 -0.8654
vn -0.9993 0.0378 -0.0000
vn -0.4996 0.0378 0.8654
vn 0.2919 0.8119 0.5056
vn 0.5839 0.8119 -0.0000
vn 0.2919 0.8119 -0.5056
vn -0.2919 0.8119 -0.5056
vn -0.5839 0.8119 -0.0000
vn -0.2919 0.8119 0.5056
vn 0.4967 -0.1138 0.8604
vn 0.9935 -0.1138 -0.0000
vn 0.4967 -0.1138 -0.8604
vn -0.4967 -0.1138 -0.8604
vn -0.9935 -0.1138 -0.0000
vn -0.4967 -0.1138 0.8604
vn 0.2104 0.9072 0.3644
vn 0.4207 0.9072 -0.0000
vn 0.2104 0.9072 -0.3644
vn -0.2104 0.9072 -0.3644
vn -0.4207 0.9072 -0.0000
vn -0.2104 0.9072 0.3644
vn 0.3447 -0.7243 0.5971
vn 0.6895 -0.7243 -0.0000
vn 0.3447 -0.7243 -0.5971
vn -0.3447 -0.7243 -0.5971
vn -0.6895 -0.7243 -0.0000
vn -0.3447 -0.7243 0.5971
vn -0.0000 1.0000 -0.0000
vn 0.1796 0.9333 0.3111
vn 0.3592 0.9333 -0.0000
vn 0.1796 0.9333 -0.3111
vn -0.1796 0.9333 -0.3111
vn -0.3592 0.9333 -0.0000
vn -0.1796 0.9333 0.3111
vt 0.000000 4.800000
vt 0.166667 5.000000
vt 0.000000 5.000000
vt 0.166667 4.800000
vt 0.333333 5.000000
vt 0.333333 4.800000
vt 0.500000 5.000000
vt 0.500000 4.800000
vt 0.666667 5.000000
vt 0.666667 4.800000
vt 0.833333 5.000000
vt 0.833333 4.800000
vt 1.000000 5.000000
vt 0.000000 0.200000
vt 0.166667 0.576257
vt 0.000000 0.576257
vt 0.166667 0.200000
vt 0.333333 0.576257
vt 0.333333 0.200000
vt 0.500000 0.576257
vt 0.500000 0.200000
vt 0.666667 0.576257
vt 0.666667 0.200000
vt 0.833333 0.576257
vt 0.833333 0.200000
vt 1.000000 0.576257
vt 0.000000 4.391593
vt 0.166667 4.391593
vt 0.333333 4.391593
vt 0.500000 4.391593
vt 0.666667 4.391593
vt 0.833333 4.391593
vt 1.000000 4.800000
vt 0.000000 3.807750
vt 0.166667 3.807750
vt 0.333333 3.807750
vt 0.500000 3.807750
vt 0.666667 3.807750
vt 0.833333 3.807750
vt 1.000000 4.391593
vt 0.166667 0.721945
vt 0.000000 0.721945
vt 0.333333 0.721945
vt 0.500000 0.721945
vt 0.666667 0.721945
vt 0.833333 0.721945
vt 1.000000 0.721945
vt 0.000000 1.607279
vt 0.166667 1.877444
vt 0.000000 1.877444
vt 0.166667 1.607279
vt 0.333333 1.877444
vt 0.333333 1.607279
vt 0.500000 1.877444
vt 0.666667 1.607279
vt 0.666667 1.877444
vt 0.833333 1.877444
vt 0.833333 1.607279
vt 1.000000 1.877444
vt 0.000000 1.091550
vt 0.166667 1.091550
vt 0.333333 1.091550
vt 0.500000 1.091550
vt 0.666667 1.091550
vt 0.833333 1.091550
vt 1.000000 1.091550
vt 0.166667 2.642597
vt 0.000000 2.642597
vt 0.333333 2.642597
vt 0.500000 2.642597
vt 0.666667 2.642597
vt 0.833333 2.642597
vt 1.000000 2.642597
vt 0.000000 3.225173
vt 0.166667 3.316462
vt 0.000000 3.316462
vt 0.166667 3.225173
vt 0.333333 3.316462
vt 0.500000 3.225173
vt 0.500000 3.316462
vt 0.666667 3.316462
vt 0.666667 3.225173
vt 0.833333 3.316462
vt 0.833333 3.225173
vt 1.000000 3.316462
vt 0.000000 1.321088
vt 0.333333 1.321088
vt 0.500000 1.607279
vt 0.500000 1.321088
vt 0.666667 1.321088
vt 1.000000 1.321088
vt 1.000000 1.607279
vt 0.000000 3.488910
vt 0.166667 3.488910
vt 0.333333 3.488910
vt 0.500000 3.488910
vt 0.666667 3.488910
vt 0.833333 3.488910
vt 1.000000 3.488910
vt 0.166667 1.321088
vt 0.833333 1.321088
vt 0.333333 3.225173
vt 1.000000 3.225173
vt 0.166667 3.634928
vt 0.000000 3.634928
vt 0.333333 3.634928
vt 0.500000 3.634928
vt 0.666667 3.634928
vt 0.833333 3.634928
vt 1.000000 3.634928
vt 1.000000 3.807750
vt 1.000000 0.200000
s 0
f 1/1/1 22/2/1 3/3/1
f 20/4/2 41/5/2 22/2/2
f 39/6/3 60/7/3 41/5/3
f 58/8/4 79/9/4 60/7/4
f 77/10/5 98/11/5 79/9/5
f 96/12/6 3/13/6 98/11/6
f 2/14/7 25/15/7 6/16/7
f 21/17/8 44/18/8 25/15/8
f 40/19/9 63/20/9 44/18/9
f 59/21/10 82/22/10 63/20/10
f 78/23/11 101/24/11 82/22/11
f 97/25/12 6/26/12 101/24/12
f 4/27/13 20/4/13 1/1/13
f 23/28/14 39/6/14 20/4/14
f 42/29/15 58/8/15 39/6/15
f 61/30/16 77/10/16 58/8/16
f 80/31/17 96/12/17 77/10/17
f 99/32/18 1/33/18 96/12/18
f 5/34/19 23/28/19 4/27/19
f 24/35/20 42/29/20 23/28/20
f 43/36/21 61/30/21 42/29/21
f 62/37/22 80/31/22 61/30/22
f 81/38/23 99/32/23 80/31/23
f 100/39/24 4/40/24 99/32/24
f 6/16/25 27/41/25 8/42/25
f 25/15/26 46/43/26 27/41/26
f 44/18/27 65/44/27 46/43/27
f 63/20/28 84/45/28 65/44/28
f 82/22/29 103/46/29 84/45/29
f 103/46/30 6/26/30 8/47/30
f 7/48/31 28/49/31 9/50/31
f 26/51/32 47/52/32 28/49/32
f 45/53/33 66/54/33 47/52/33
f 66/54/34 83/55/34 85/56/34
f 83/55/35 104/57/35 85/56/35
f 102/58/36 9/59/36 104/57/36
f 13/60/37 27/41/37 32/61/37
f 27/41/38 51/62/38 32/61/38
f 51/62/39 65/44/39 70/63/39
f 70/63/40 84/45/40 89/64/40
f 84/45/41 108/65/41 89/64/41
f 103/46/42 13/66/42 108/65/42
f 9/50/43 33/67/43 14/68/43
f 28/49/44 52/69/44 33/67/44
f 47/52/45 71/70/45 52/69/45
f 66/54/46 90/71/46 71/70/46
f 85/56/47 109/72/47 90/71/47
f 109/72/48 9/59/48 14/73/48
f 11/74/49 29/75/49 10/76/49
f 30/77/50 48/78/50 29/75/50
f 48/78/51 68/79/51 67/80/51
f 68/79/52 86/81/52 67/80/52
f 87/82/53 105/83/53 86/81/53
f 106/84/54 10/85/54 105/83/54
f 12/86/25 26/51/25 7/48/25
f 26/51/26 50/87/26 45/53/26
f 50/87/27 64/88/27 45/53/27
f 69/89/28 83/55/28 64/88/28
f 88/90/29 102/58/29 83/55/29
f 102/58/30 12/91/30 7/92/30
f 15/93/55 29/75/55 34/94/55
f 29/75/56 53/95/56 34/94/56
f 48/78/57 72/96/57 53/95/57
f 72/96/58 86/81/58 91/97/58
f 86/81/59 110/98/59 91/97/59
f 105/83/60 15/99/60 110/98/60
f 13/60/61 31/100/61 12/86/61
f 31/100/62 51/62/62 50/87/62
f 51/62/63 69/89/63 50/87/63
f 70/63/64 88/90/64 69/89/64
f 89/64/65 107/101/65 88/90/65
f 107/101/66 13/66/66 12/91/66
f 14/68/67 30/77/67 11/74/67
f 33/67/68 49/102/68 30/77/68
f 52/69/69 68/79/69 49/102/69
f 71/70/70 87/82/70 68/79/70
f 90/71/71 106/84/71 87/82/71
f 109/72/72 11/103/72 106/84/72
f 15/93/73 35/104/73 16/105/73
f 34/94/74 54/106/74 35/104/74
f 53/95/75 73/107/75 54/106/75
f 72/96/76 92/108/76 73/107/76
f 91/97/77 111/109/77 92/108/77
f 111/109/78 15/99/78 16/110/78
f 16/105/79 24/35/79 5/34/79
f 24/35/80 54/106/80 43/36/80
f 43/36/81 73/107/81 62/37/81
f 73/107/82 81/38/82 62/37/82
f 81/38/83 111/109/83 100/39/83
f 111/109/84 5/111/84 100/39/84
f 3/3/85 37/2/85 18/3/85
f 22/2/85 56/5/85 37/2/85
f 41/5/85 75/7/85 56/5/85
f 60/7/85 94/9/85 75/7/85
f 79/9/85 113/11/85 94/9/85
f 98/11/85 18/13/85 113/11/85
f 19/14/85 36/17/85 17/14/85
f 38/17/85 55/19/85 36/17/85
f 57/19/85 74/21/85 55/19/85
f 76/21/85 93/23/85 74/21/85
f 95/23/85 112/25/85 93/23/85
f 114/25/85 17/112/85 112/25/85
f 1/1/86 20/4/86 22/2/86
f 20/4/87 39/6/87 41/5/87
f 39/6/88 58/8/88 60/7/88
f 58/8/89 77/10/89 79/9/89
f 77/10/90 96/12/90 98/11/90
f 96/12/91 1/33/91 3/13/91
f 2/14/7 21/17/7 25/15/7
f 21/17/8 40/19/8 44/18/8
f 40/19/9 59/21/9 63/20/9
f 59/21/10 78/23/10 82/22/10
f 78/23/11 97/25/11 101/24/11
f 97/25/12 2/112/12 6/26/12
f 4/27/13 23/28/13 20/4/13
f 23/28/14 42/29/14 39/6/14
f 42/29/15 61/30/15 58/8/15
f 61/30/16 80/31/16 77/10/16
f 80/31/17 99/32/17 96/12/17
f 99/32/18 4/40/18 1/33/18
f 5/34/19 24/35/19 23/28/19
f 24/35/20 43/36/20 42/29/20
f 43/36/21 62/37/21 61/30/21
f 62/37/22 81/38/22 80/31/22
f 81/38/23 100/39/23 99/32/23
f 100/39/24 5/111/24 4/40/24
f 6/16/25 25/15/25 27/41/25
f 25/15/26 44/18/26 46/43/26
f 44/18/27 63/20/27 65/44/27
f 63/20/28 82/22/28 84/45/28
f 82/22/29 101/24/29 103/46/29
f 103/46/30 101/24/30 6/26/30
f 7/48/31 26/51/31 28/49/31
f 26/51/32 45/53/32 47/52/32
f 45/53/33 64/88/33 66/54/33
f 66/54/34 64/88/34 83/55/34
f 83/55/35 102/58/35 104/57/35
f 102/58/36 7/92/36 9/59/36
f 13/60/37 8/42/37 27/41/37
f 27/41/38 46/43/38 51/62/38
f 51/62/39 46/43/39 65/44/39
f 70/63/40 65/44/40 84/45/40
f 84/45/41 103/46/41 108/65/41
f 103/46/42 8/47/42 13/66/42
f 9/50/43 28/49/43 33/67/43
f 28/49/44 47/52/44 52/69/44
f 47/52/45 66/54/45 71/70/45
f 66/54/46 85/56/46 90/71/46
f 85/56/47 104/57/47 109/72/47
f 109/72/48 104/57/48 9/59/48
f 11/74/49 30/77/49 29/75/49
f 30/77/50 49/102/50 48/78/50
f 48/78/51 49/102/51 68/79/51
f 68/79/52 87/82/52 86/81/52
f 87/82/53 106/84/53 105/83/53
f 106/84/54 11/103/54 10/85/54
f 12/86/25 31/100/25 26/51/25
f 26/51/26 31/100/26 50/87/26
f 50/87/27 69/89/27 64/88/27
f 69/89/28 88/90/28 83/55/28
f 88/90/29 107/101/29 102/58/29
f 102/58/30 107/101/30 12/91/30
f 15/93/55 10/76/55 29/75/55
f 29/75/56 48/78/56 53/95/56
f 48/78/57 67/80/57 72/96/57
f 72/96/58 67/80/58 86/81/58
f 86/81/59 105/83/59 110/98/59
f 105/83/60 10/85/60 15/99/60
f 13/60/61 32/61/61 31/100/61
f 31/100/62 32/61/62 51/62/62
f 51/62/63 70/63/63 69/89/63
f 70/63/64 89/64/64 88/90/64
f 89/64/65 108/65/65 107/101/65
f 107/101/66 108/65/66 13/66/66
f 14/68/67 33/67/67 30/77/67
f 33/67/68 52/69/68 49/102/68
f 52/69/69 71/70/69 68/79/69
f 71/70/70 90/71/70 87/82/70
f 90/71/71 109/72/71 106/84/71
f 109/72/72 14/73/72 11/103/72
f 15/93/73 34/94/73 35/104/73
f 34/94/74 53/95/74 54/106/74
f 53/95/75 72/96/75 73/107/75
f 72/96/76 91/97/76 92/108/76
f 91/97/77 110/98/77 111/109/77
f 111/109/78 110/98/78 15/99/78
f 16/105/79 35/104/79 24/35/79
f 24/35/80 35/104/80 54/106/80
f 43/36/81 54/106/81 73/107/81
f 73/107/82 92/108/82 81/38/82
f 81/38/83 92/108/83 111/109/83
f 111/109/84 16/110/84 5/111/84
f 3/3/85 22/2/85 37/2/85
f 22/2/85 41/5/85 56/5/85
f 41/5/85 60/7/85 75/7/85
f 60/7/85 79/9/85 94/9/85
f 79/9/85 98/11/85 113/11/85
f 98/11/85 3/13/85 18/13/85
f 19/14/85 38/17/85 36/17/85
f 38/17/85 57/19/85 55/19/85
f 57/19/85 76/21/85 74/21/85
f 76/21/85 95/23/85 93/23/85
f 95/23/85 114/25/85 112/25/85
f 114/25/85 19/112/85 17/112/85
o Board
v -4.000000 0.000000 4.000000
v 4.000000 0.000000 4.000000
v -4.000000 0.000000 -4.000000
v 4.000000 0.000000 -4.000000
v -3.000000 0.000000 4.000000
v -2.000000 0.000000 4.000000
v -1.000000 0.000000 4.000000
v 0.000000 0.000000 4.000000
v 1.000000 0.000000 4.000000
v 2.000000 0.000000 4.000000
v 3.000000 0.000000 4.000000
v 3.000000 0.000000 -4.000000
v 2.000000 0.000000 -4.000000
v 1.000000 0.000000 -4.000000
v 0.000000 0.000000 -4.000000
v -1.000000 0.000000 -4.000000
v -2.000000 0.000000 -4.000000
v -3.000000 0.000000 -4.000000
v -4.000000 0.000000 -3.000000
v -4.000000 0.000000 -2.000000
v -4.000000 0.000000 -1.000000
v -4.000000 0.000000 0.000000
v -4.000000 0.000000 1.000000
v -4.000000 0.000000 2.000000
v -4.000000 0.000000 3.000000
v 4.000000 0.000000 3.000000
v 4.000000 0.000000 2.000000
v 4.000000 0.000000 1.000000
v 4.000000 0.000000 0.000000
v 4.000000 0.000000 -1.000000
v 4.000000 0.000000 -2.000000
v 4.000000 0.000000 -3.000000
v -3.000000 0.000000 3.000000
v -3.000000 0.000000 2.000000
v -3.000000 0.000000 1.000000
v -3.000000 0.000000 0.000000
v -3.000000 0.000000 -1.000000
v -3.000000 0.000000 -2.000000
v -3.000000 0.000000 -3.000000
v -2.000000 0.000000 3.000000
v -2.000000 0.000000 2.000000
v -2.000000 0.000000 1.000000
v -2.000000 0.000000 0.000000
v -2.000000 0.000000 -1.000000
v -2.000000 0.000000 -2.000000
v -2.000000 0.000000 -3.000000
v -1.000000 0.000000 3.000000
v -1.000000 0.000000 2.000000
v -1.000000 0.000000 1.000000
v -1.000000 0.000000 0.000000
v -1.000000 0.000000 -1.000000
v -1.000000 0.000000 -2.000000
v -1.000000 0.000000 -3.000000
v 0.000000 0.000000 3.000000
v 0.000000 0.000000 2.000000
v 0.000000 0.000000 1.000000
v 0.000000 0.000000 0.000000
v 0.000000 0.000000 -1.000000
v 0.000000 0.000000 -2.000000
v 0.000000 0.000000 -3.000000
v 1.000000 0.000000 3.000000
v 1.000000 0.000000 2.000000
v 1.000000 0.000000 1.000000
v 1.000000 0.000000 0.000000
v 1.000000 0.000000 -1.000000
v 1.000000 0.000000 -2.000000
v 1.000000 0.000000 -3.000000
v 2.000000 0.000000 3.000000
v 2.000000 0.000000 2.000000
v 2.000000 0.000000 1.000000
v 2.000000 0.000000 0.000000
v 2.000000 0.000000 -1.000000
v 2.000000 0.000000 -2.000000
v 2.000000 0.000000 -3.000000
v 3.000000 0.000000 3.000000
v 3.000000 0.000000 2.000000
v 3.000000 0.000000 1.000000
v 3.000000 0.000000 0.000000
v 3.000000 0.000000 -1.000000
v 3.000000 0.000000 -2.000000
v 3.000000 0.000000 -3.000000
vn -0.0000 1.0000 -0.0000
vt 1.000000 0.875000
vt 0.875000 1.000000
vt 0.875000 0.875000
vt 0.125000 0.875000
vt 0.000000 1.000000
vt 0.000000 0.875000
vt 0.250000 0.875000
vt 0.125000 1.000000
vt 0.375000 0.875000
vt 0.250000 1.000000
vt 0.500000 0.875000
vt 0.375000 1.000000
vt 0.625000 0.875000
vt 0.500000 1.000000
vt 0.750000 0.875000
vt 0.625000 1.000000
vt 0.750000 1.000000
vt 0.875000 0.000000
vt 0.750000 0.125000
vt 0.750000 0.000000
vt 0.875000 0.125000
vt 0.750000 0.250000
vt 0.875000 0.250000
vt 0.750000 0.375000
vt 0.875000 0.375000
vt 0.750000 0.500000
vt 0.875000 0.500000
vt 0.750000 0.625000
vt 0.875000 0.625000
vt 0.750000 0.750000
vt 0.875000 0.750000
vt 0.625000 0.125000
vt 0.625000 0.000000
vt 0.625000 0.250000
vt 0.625000 0.375000
vt 0.625000 0.500000
vt 0.625000 0.625000
vt 0.625000 0.750000
vt 0.500000 0.125000
vt 0.500000 0.000000
vt 0.500000 0.250000
vt 0.500000 0.375000
vt 0.500000 0.500000
vt 0.500000 0.625000
vt 0.500000 0.750000
vt 0.375000 0.125000
vt 0.375000 0.000000
vt 0.375000 0.250000
vt 0.375000 0.375000
vt 0.375000 0.500000
vt 0.375000 0.625000
vt 0.375000 0.750000
vt 0.250000 0.125000
vt 0.250000 0.000000
vt 0.250000 0.250000
vt 0.250000 0.375000
vt 0.250000 0.500000
vt 0.250000 0.625000
vt 0.250000 0.750000
vt 0.125000 0.125000
vt 0.125000 0.000000
vt 0.125000 0.250000
vt 0.125000 0.375000
vt 0.125000 0.500000
vt 0.125000 0.625000
vt 0.125000 0.750000
vt 0.000000 0.125000
vt 0.000000 0.000000
vt 0.000000 0.250000
vt 0.000000 0.375000
vt 0.000000 0.500000
vt 0.000000 0.625000
vt 0.000000 0.750000
vt 1.000000 0.000000
vt 1.000000 0.125000
vt 1.000000 0.250000
vt 1.000000 0.375000
vt 1.000000 0.500000
vt 1.000000 0.625000
vt 1.000000 0.750000
vt 1.000000 1.000000
s 0
usemtl Material
f 146/113/92 126/114/92 195/115/92
f 160/119/92 132/120/92 153/116/92
f 174/123/92 130/124/92 167/121/92
f 188/127/92 128/128/92 181/125/92
f 125/130/92 182/131/92 124/132/92
f 190/135/92 184/136/92 183/134/92
f 192/139/92 186/140/92 185/138/92
f 194/143/92 188/127/92 187/142/92
f 182/131/92 176/146/92 175/144/92
f 184/136/92 178/148/92 177/147/92
f 186/140/92 180/150/92 179/149/92
f 123/145/92 168/151/92 122/152/92
f 176/146/92 170/154/92 169/153/92
f 178/148/92 172/156/92 171/155/92
f 180/150/92 174/123/92 173/157/92
f 168/151/92 162/160/92 161/158/92
f 170/154/92 164/162/92 163/161/92
f 172/156/92 166/164/92 165/163/92
f 121/159/92 154/165/92 120/166/92
f 162/160/92 156/168/92 155/167/92
f 164/162/92 158/170/92 157/169/92
f 166/164/92 160/119/92 159/171/92
f 154/165/92 148/174/92 147/172/92
f 156/168/92 150/176/92 149/175/92
f 158/170/92 152/178/92 151/177/92
f 119/173/92 139/179/92 115/180/92
f 148/174/92 137/182/92 138/181/92
f 150/176/92 135/184/92 136/183/92
f 152/178/92 133/118/92 134/185/92
f 140/187/92 190/135/92 189/133/92
f 142/189/92 192/139/92 191/137/92
f 144/191/92 194/143/92 193/141/92
f 146/113/92 118/193/92 126/114/92
f 160/119/92 131/122/92 132/120/92
f 174/123/92 129/126/92 130/124/92
f 188/127/92 127/129/92 128/128/92
f 125/130/92 189/133/92 182/131/92
f 190/135/92 191/137/92 184/136/92
f 192/139/92 193/141/92 186/140/92
f 194/143/92 195/115/92 188/127/92
f 182/131/92 183/134/92 176/146/92
f 184/136/92 185/138/92 178/148/92
f 186/140/92 187/142/92 180/150/92
f 123/145/92 175/144/92 168/151/92
f 176/146/92 177/147/92 170/154/92
f 178/148/92 179/149/92 172/156/92
f 180/150/92 181/125/92 174/123/92
f 168/151/92 169/153/92 162/160/92
f 170/154/92 171/155/92 164/162/92
f 172/156/92 173/157/92 166/164/92
f 121/159/92 161/158/92 154/165/92
f 162/160/92 163/161/92 156/168/92
f 164/162/92 165/163/92 158/170/92
f 166/164/92 167/121/92 160/119/92
f 154/165/92 155/167/92 148/174/92
f 156/168/92 157/169/92 150/176/92
f 158/170/92 159/171/92 152/178/92
f 119/173/92 147/172/92 139/179/92
f 148/174/92 149/175/92 137/182/92
f 150/176/92 151/177/92 135/184/92
f 152/178/92 153/116/92 133/118/92
f 140/187/92 141/188/92 190/135/92
f 142/189/92 143/190/92 192/139/92
f 144/191/92 145/192/92 194/143/92
usemtl White
f 153/116/92 117/117/92 133/118/92
f 167/121/92 131/122/92 160/119/92
f 181/125/92 129/126/92 174/123/92
f 195/115/92 127/129/92 188/127/92
f 189/133/92 183/134/92 182/131/92
f 191/137/92 185/138/92 184/136/92
f 193/141/92 187/142/92 186/140/92
f 124/132/92 175/144/92 123/145/92
f 183/134/92 177/147/92 176/146/92
f 185/138/92 179/149/92 178/148/92
f 187/142/92 181/125/92 180/150/92
f 175/144/92 169/153/92 168/151/92
f 177/147/92 171/155/92 170/154/92
f 179/149/92 173/157/92 172/156/92
f 122/152/92 161/158/92 121/159/92
f 169/153/92 163/161/92 162/160/92
f 171/155/92 165/163/92 164/162/92
f 173/157/92 167/121/92 166/164/92
f 161/158/92 155/167/92 154/165/92
f 163/161/92 157/169/92 156/168/92
f 165/163/92 159/171/92 158/170/92
f 120/166/92 147/172/92 119/173/92
f 155/167/92 149/175/92 148/174/92
f 157/169/92 151/177/92 150/176/92
f 159/171/92 153/116/92 152/178/92
f 147/172/92 138/181/92 139/179/92
f 149/175/92 136/183/92 137/182/92
f 151/177/92 134/185/92 135/184/92
f 116/186/92 189/133/92 125/130/92
f 141/188/92 191/137/92 190/135/92
f 143/190/92 193/141/92 192/139/92
f 145/192/92 195/115/92 194/143/92
f 153/116/92 132/120/92 117/117/92
f 167/121/92 130/124/92 131/122/92
f 181/125/92 128/128/92 129/126/92
f 195/115/92 126/114/92 127/129/92
f 189/133/92 190/135/92 183/134/92
f 191/137/92 192/139/92 185/138/92
f 193/141/92 194/143/92 187/142/92
f 124/132/92 182/131/92 175/144/92
f 183/134/92 184/136/92 177/147/92
f 185/138/92 186/140/92 179/149/92
f 187/142/92 188/127/92 181/125/92
f 175/144/92 176/146/92 169/153/92
f 177/147/92 178/148/92 171/155/92
f 179/149/92 180/150/92 173/157/92
f 122/152/92 168/151/92 161/158/92
f 169/153/92 170/154/92 163/161/92
f 171/155/92 172/156/92 165/163/92
f 173/157/92 174/123/92 167/121/92
f 161/158/92 162/160/92 155/167/92
f 163/161/92 164/162/92 157/169/92
f 165/163/92 166/164/92 159/171/92
f 120/166/92 154/165/92 147/172/92
f 155/167/92 156/168/92 149/175/92
f 157/169/92 158/170/92 151/177/92
f 159/171/92 160/119/92 153/116/92
f 147/172/92 148/174/92 138/181/92
f 149/175/92 150/176/92 136/183/92
f 151/177/92 152/178/92 134/185/92
f 116/186/92 140/187/92 189/133/92
f 141/188/92 142/189/92 191/137/92
f 143/190/92 144/191/92 193/141/92
f 145/192/92 146/113/92 195/115/92
